<?xml version="1.0" encoding="utf-8"?>
<!-- Generator: Adobe Illustrator 27.5.0, SVG Export Plug-In . SVG Version: 6.00 Build 0)  -->
<svg version="1.1" xmlns="http://www.w3.org/2000/svg" xmlns:xlink="http://www.w3.org/1999/xlink" x="0px" y="0px"
	 viewBox="0 0 500 500" style="enable-background:new 0 0 500 500;" xml:space="preserve">
<g id="Background_Complete">
	<g>
		<rect x="416.779" y="398.494" style="fill:#EBEBEB;" width="33.122" height="0.25"/>
		<rect x="322.527" y="401.208" style="fill:#EBEBEB;" width="8.693" height="0.25"/>
		<rect x="396.586" y="389.208" style="fill:#EBEBEB;" width="19.192" height="0.25"/>
		<rect x="52.459" y="390.888" style="fill:#EBEBEB;" width="43.193" height="0.25"/>
		<rect x="104.556" y="390.888" style="fill:#EBEBEB;" width="6.333" height="0.25"/>
		<rect x="131.471" y="395.111" style="fill:#EBEBEB;" width="93.676" height="0.25"/>
		<g>
			<path style="fill:#EBEBEB;" d="M238.401,337.8H45.302c-3.147,0-5.708-2.561-5.708-5.708V60.66c0-3.147,2.561-5.708,5.708-5.708
				h193.099c3.146,0,5.707,2.561,5.707,5.708v271.432C244.108,335.239,241.547,337.8,238.401,337.8z M45.302,55.203
				c-3.01,0-5.458,2.448-5.458,5.458v271.432c0,3.01,2.448,5.458,5.458,5.458h193.099c3.009,0,5.457-2.448,5.457-5.458V60.66
				c0-3.009-2.448-5.458-5.457-5.458H45.302z"/>
			<path style="fill:#EBEBEB;" d="M454.698,337.8H261.599c-3.146,0-5.707-2.561-5.707-5.708V60.66c0-3.147,2.561-5.708,5.707-5.708
				h193.099c3.148,0,5.708,2.561,5.708,5.708v271.432C460.406,335.239,457.845,337.8,454.698,337.8z M261.599,55.203
				c-3.009,0-5.457,2.448-5.457,5.458v271.432c0,3.01,2.448,5.458,5.457,5.458h193.099c3.01,0,5.458-2.448,5.458-5.458V60.66
				c0-3.009-2.448-5.458-5.458-5.458H261.599z"/>
		</g>
		<rect y="382.398" style="fill:#EBEBEB;" width="500" height="0.25"/>
	</g>
	<path style="fill:#F5F5F5;" d="M212.584,112.166c-1.149,0-2.142,0.372-2.895,0.997c0.165-0.854,0.182-1.774,0.008-2.739
		c-0.781-4.327-4.922-7.836-9.249-7.836c-1.33,0-2.521,0.334-3.513,0.919c-1.651-2.968-4.889-5.084-8.246-5.084
		c-4.327,0-7.203,3.508-6.422,7.836c0.064,0.355,0.158,0.701,0.266,1.044c-0.689-0.179-1.396-0.283-2.11-0.283
		c-4.328,0-7.202,3.508-6.422,7.836c0.781,4.327,4.922,7.835,9.25,7.835c4.327,0,28.326,0,31.233,0s4.838-2.356,4.313-5.263
		C218.272,114.522,215.49,112.166,212.584,112.166z"/>
	<path style="fill:#F5F5F5;" d="M161.271,118.629c-2.086,0-3.888,0.676-5.255,1.811c0.3-1.55,0.33-3.22,0.014-4.972
		c-1.418-7.855-8.935-14.223-16.79-14.223c-2.414,0-4.576,0.606-6.377,1.667c-2.997-5.387-8.874-9.228-14.969-9.228
		c-7.855,0-13.074,6.368-11.657,14.223c0.116,0.644,0.288,1.273,0.482,1.894c-1.251-0.324-2.535-0.513-3.83-0.513
		c-7.856,0-13.074,6.368-11.657,14.223c1.418,7.855,8.935,14.223,16.79,14.223c7.855,0,51.419,0,56.695,0
		c5.276,0,8.781-4.277,7.829-9.553C171.596,122.906,166.547,118.629,161.271,118.629z"/>
	<path style="fill:#F5F5F5;" d="M390.393,121.875c-2.086,0-3.888,0.676-5.254,1.811c0.3-1.55,0.33-3.22,0.014-4.972
		c-1.418-7.855-8.935-14.223-16.79-14.223c-2.414,0-4.576,0.606-6.376,1.667c-2.997-5.387-8.874-9.228-14.969-9.228
		c-7.855,0-13.074,6.368-11.657,14.224c0.116,0.644,0.287,1.273,0.482,1.894c-1.251-0.325-2.535-0.513-3.831-0.513
		c-7.856,0-13.074,6.368-11.657,14.223c1.418,7.855,8.935,14.223,16.79,14.223c7.855,0,51.419,0,56.695,0
		c5.276,0,8.781-4.277,7.829-9.553C400.718,126.152,395.669,121.875,390.393,121.875z"/>
	<path style="fill:#F0F0F0;" d="M420.981,109.223c-0.869,0-1.619,0.282-2.188,0.754c0.125-0.645,0.137-1.341,0.006-2.071
		c-0.59-3.272-3.721-5.924-6.993-5.924c-1.006,0-1.906,0.252-2.656,0.694c-1.248-2.244-3.696-3.843-6.234-3.843
		c-3.272,0-5.445,2.652-4.855,5.924c0.048,0.268,0.12,0.53,0.201,0.789c-0.521-0.135-1.056-0.214-1.595-0.214
		c-3.272,0-5.445,2.652-4.855,5.924c0.59,3.272,3.721,5.924,6.993,5.924s21.415,0,23.613,0s3.658-1.781,3.261-3.979
		C425.282,111.004,423.179,109.223,420.981,109.223z"/>
	<g>
		<polygon style="fill:#F0F0F0;" points="275.591,157.226 275.591,147.575 256.075,147.575 256.075,157.226 223.686,157.226 
			223.686,384.487 280.313,384.487 280.313,157.226 		"/>
		<g>
			<rect x="241.978" y="169.43" style="fill:#FAFAFA;" width="8.363" height="8.364"/>
			<rect x="253.658" y="169.43" style="fill:#FAFAFA;" width="8.363" height="8.364"/>
			<rect x="230.298" y="182.043" style="fill:#FAFAFA;" width="8.364" height="8.363"/>
			<rect x="241.978" y="182.043" style="fill:#FAFAFA;" width="8.363" height="8.363"/>
			<rect x="265.338" y="182.043" style="fill:#FAFAFA;" width="8.364" height="8.363"/>
			<rect x="230.298" y="194.655" style="fill:#FAFAFA;" width="8.364" height="8.364"/>
			<rect x="253.658" y="194.655" style="fill:#FAFAFA;" width="8.363" height="8.364"/>
			<rect x="265.338" y="194.655" style="fill:#FAFAFA;" width="8.364" height="8.364"/>
			<rect x="230.298" y="219.881" style="fill:#FAFAFA;" width="8.364" height="8.364"/>
			<rect x="253.658" y="219.881" style="fill:#FAFAFA;" width="8.363" height="8.364"/>
			<rect x="230.298" y="232.494" style="fill:#FAFAFA;" width="8.364" height="8.363"/>
			<rect x="241.978" y="232.494" style="fill:#FAFAFA;" width="8.363" height="8.363"/>
			<rect x="265.338" y="232.494" style="fill:#FAFAFA;" width="8.364" height="8.363"/>
			<rect x="230.298" y="295.472" style="fill:#FAFAFA;" width="8.364" height="8.363"/>
			<rect x="241.978" y="295.472" style="fill:#FAFAFA;" width="8.363" height="8.363"/>
			<rect x="265.338" y="295.472" style="fill:#FAFAFA;" width="8.364" height="8.363"/>
			<rect x="230.298" y="308.084" style="fill:#FAFAFA;" width="8.364" height="8.364"/>
			<rect x="253.658" y="308.084" style="fill:#FAFAFA;" width="8.363" height="8.364"/>
			<rect x="265.338" y="308.084" style="fill:#FAFAFA;" width="8.364" height="8.364"/>
			<rect x="230.298" y="333.31" style="fill:#FAFAFA;" width="8.364" height="8.364"/>
			<rect x="253.658" y="333.31" style="fill:#FAFAFA;" width="8.363" height="8.364"/>
			<rect x="230.298" y="345.923" style="fill:#FAFAFA;" width="8.364" height="8.363"/>
			<rect x="241.978" y="345.923" style="fill:#FAFAFA;" width="8.363" height="8.363"/>
			<rect x="265.338" y="345.923" style="fill:#FAFAFA;" width="8.364" height="8.363"/>
			<rect x="265.338" y="245.107" style="fill:#FAFAFA;" width="8.364" height="8.363"/>
			<rect x="230.298" y="257.719" style="fill:#FAFAFA;" width="8.364" height="8.363"/>
			<rect x="241.978" y="257.719" style="fill:#FAFAFA;" width="8.363" height="8.363"/>
			
				<rect x="253.657" y="270.416" transform="matrix(0.9999 0.0143 -0.0143 0.9999 3.963 -3.668)" style="fill:#FAFAFA;" width="8.364" height="8.364"/>
			
				<rect x="265.336" y="270.583" transform="matrix(0.9999 0.0143 -0.0143 0.9999 3.9567 -3.826)" style="fill:#FAFAFA;" width="8.364" height="8.364"/>
			<rect x="230.298" y="282.945" style="fill:#FAFAFA;" width="8.364" height="8.364"/>
		</g>
	</g>
	<g>
		<polygon style="fill:#F0F0F0;" points="384.237,200.543 384.237,192.731 400.034,192.731 400.034,200.543 426.249,200.543 
			426.249,384.487 380.415,384.487 380.415,200.543 		"/>
		<g>
			
				<rect x="404.674" y="210.421" transform="matrix(-1 -1.224647e-16 1.224647e-16 -1 816.1181 427.6109)" style="fill:#FAFAFA;" width="6.769" height="6.769"/>
			
				<rect x="395.221" y="210.421" transform="matrix(-1 -1.224647e-16 1.224647e-16 -1 797.2104 427.6109)" style="fill:#FAFAFA;" width="6.769" height="6.769"/>
			
				<rect x="414.128" y="220.63" transform="matrix(-1 -1.224647e-16 1.224647e-16 -1 835.0258 448.0283)" style="fill:#FAFAFA;" width="6.77" height="6.769"/>
			
				<rect x="404.674" y="220.63" transform="matrix(-1 -1.224647e-16 1.224647e-16 -1 816.1181 448.0283)" style="fill:#FAFAFA;" width="6.769" height="6.769"/>
			
				<rect x="385.767" y="220.63" transform="matrix(-1 -1.224647e-16 1.224647e-16 -1 778.3027 448.0283)" style="fill:#FAFAFA;" width="6.77" height="6.769"/>
			
				<rect x="414.128" y="230.838" transform="matrix(-1 -1.224647e-16 1.224647e-16 -1 835.0258 468.4455)" style="fill:#FAFAFA;" width="6.77" height="6.769"/>
			
				<rect x="395.221" y="230.838" transform="matrix(-1 -1.224647e-16 1.224647e-16 -1 797.2104 468.4455)" style="fill:#FAFAFA;" width="6.769" height="6.769"/>
			
				<rect x="385.767" y="230.838" transform="matrix(-1 -1.224647e-16 1.224647e-16 -1 778.3027 468.4455)" style="fill:#FAFAFA;" width="6.77" height="6.769"/>
			
				<rect x="414.128" y="251.255" transform="matrix(-1 -1.224647e-16 1.224647e-16 -1 835.0258 509.2804)" style="fill:#FAFAFA;" width="6.77" height="6.77"/>
			
				<rect x="395.221" y="251.255" transform="matrix(-1 -1.224647e-16 1.224647e-16 -1 797.2104 509.2804)" style="fill:#FAFAFA;" width="6.769" height="6.77"/>
			
				<rect x="414.128" y="261.464" transform="matrix(-1 -1.224647e-16 1.224647e-16 -1 835.0258 529.6979)" style="fill:#FAFAFA;" width="6.77" height="6.769"/>
			
				<rect x="404.674" y="261.464" transform="matrix(-1 -1.224647e-16 1.224647e-16 -1 816.1181 529.6979)" style="fill:#FAFAFA;" width="6.769" height="6.769"/>
			
				<rect x="385.767" y="261.464" transform="matrix(-1 -1.224647e-16 1.224647e-16 -1 778.3027 529.6979)" style="fill:#FAFAFA;" width="6.77" height="6.769"/>
			
				<rect x="414.128" y="312.439" transform="matrix(-1 -1.224647e-16 1.224647e-16 -1 835.0258 631.6462)" style="fill:#FAFAFA;" width="6.77" height="6.769"/>
			
				<rect x="404.674" y="312.439" transform="matrix(-1 -1.224647e-16 1.224647e-16 -1 816.1181 631.6462)" style="fill:#FAFAFA;" width="6.769" height="6.769"/>
			
				<rect x="385.767" y="312.439" transform="matrix(-1 -1.224647e-16 1.224647e-16 -1 778.3027 631.6462)" style="fill:#FAFAFA;" width="6.77" height="6.769"/>
			
				<rect x="414.128" y="322.647" transform="matrix(-1 -1.224647e-16 1.224647e-16 -1 835.0258 652.0632)" style="fill:#FAFAFA;" width="6.77" height="6.77"/>
			
				<rect x="395.221" y="322.647" transform="matrix(-1 -1.224647e-16 1.224647e-16 -1 797.2104 652.0632)" style="fill:#FAFAFA;" width="6.769" height="6.77"/>
			
				<rect x="385.767" y="322.647" transform="matrix(-1 -1.224647e-16 1.224647e-16 -1 778.3027 652.0632)" style="fill:#FAFAFA;" width="6.77" height="6.77"/>
			
				<rect x="414.128" y="343.064" transform="matrix(-1 -1.224647e-16 1.224647e-16 -1 835.0258 692.898)" style="fill:#FAFAFA;" width="6.77" height="6.769"/>
			
				<rect x="395.221" y="343.064" transform="matrix(-1 -1.224647e-16 1.224647e-16 -1 797.2104 692.898)" style="fill:#FAFAFA;" width="6.769" height="6.769"/>
			
				<rect x="414.128" y="353.273" transform="matrix(-1 -1.224647e-16 1.224647e-16 -1 835.0258 713.3154)" style="fill:#FAFAFA;" width="6.77" height="6.769"/>
			
				<rect x="404.674" y="353.273" transform="matrix(-1 -1.224647e-16 1.224647e-16 -1 816.1181 713.3154)" style="fill:#FAFAFA;" width="6.769" height="6.769"/>
			
				<rect x="385.767" y="353.273" transform="matrix(-1 -1.224647e-16 1.224647e-16 -1 778.3027 713.3154)" style="fill:#FAFAFA;" width="6.77" height="6.769"/>
			
				<rect x="385.767" y="271.673" transform="matrix(-1 -1.224647e-16 1.224647e-16 -1 778.3027 550.1152)" style="fill:#FAFAFA;" width="6.77" height="6.769"/>
			
				<rect x="414.128" y="281.882" transform="matrix(-1 -1.224647e-16 1.224647e-16 -1 835.0258 570.5326)" style="fill:#FAFAFA;" width="6.77" height="6.769"/>
			
				<rect x="404.674" y="281.882" transform="matrix(-1 -1.224647e-16 1.224647e-16 -1 816.1181 570.5326)" style="fill:#FAFAFA;" width="6.769" height="6.769"/>
			
				<rect x="395.221" y="292.158" transform="matrix(-0.9999 0.0143 -0.0143 -0.9999 801.4052 585.3438)" style="fill:#FAFAFA;" width="6.77" height="6.769"/>
			
				<rect x="385.768" y="292.294" transform="matrix(-0.9999 0.0143 -0.0143 -0.9999 782.4941 585.762)" style="fill:#FAFAFA;" width="6.769" height="6.769"/>
			
				<rect x="414.128" y="302.299" transform="matrix(-1 -1.224647e-16 1.224647e-16 -1 835.0258 611.3678)" style="fill:#FAFAFA;" width="6.77" height="6.77"/>
		</g>
	</g>
	<g>
		<polygon style="fill:#EBEBEB;" points="288.901,202.389 304.539,202.389 330.491,202.389 330.491,384.487 285.117,384.487 
			285.117,202.389 		"/>
		<g>
			
				<rect x="309.133" y="212.167" transform="matrix(-1 -1.224647e-16 1.224647e-16 -1 624.9668 431.0362)" style="fill:#FAFAFA;" width="6.701" height="6.702"/>
			
				<rect x="299.774" y="212.167" transform="matrix(-1 -1.224647e-16 1.224647e-16 -1 606.2489 431.0362)" style="fill:#FAFAFA;" width="6.701" height="6.702"/>
			
				<rect x="318.491" y="222.274" transform="matrix(-1 -1.224647e-16 1.224647e-16 -1 643.6847 451.2488)" style="fill:#FAFAFA;" width="6.702" height="6.701"/>
			
				<rect x="309.133" y="222.274" transform="matrix(-1 -1.224647e-16 1.224647e-16 -1 624.9668 451.2488)" style="fill:#FAFAFA;" width="6.701" height="6.701"/>
			
				<rect x="290.415" y="222.274" transform="matrix(-1 -1.224647e-16 1.224647e-16 -1 587.5309 451.2488)" style="fill:#FAFAFA;" width="6.702" height="6.701"/>
			
				<rect x="318.491" y="232.38" transform="matrix(-1 -1.224647e-16 1.224647e-16 -1 643.6847 471.461)" style="fill:#FAFAFA;" width="6.702" height="6.702"/>
			
				<rect x="299.774" y="232.38" transform="matrix(-1 -1.224647e-16 1.224647e-16 -1 606.2489 471.461)" style="fill:#FAFAFA;" width="6.701" height="6.702"/>
			
				<rect x="290.415" y="232.38" transform="matrix(-1 -1.224647e-16 1.224647e-16 -1 587.5309 471.461)" style="fill:#FAFAFA;" width="6.702" height="6.702"/>
			
				<rect x="318.491" y="252.592" transform="matrix(-1 -1.224647e-16 1.224647e-16 -1 643.6847 511.8861)" style="fill:#FAFAFA;" width="6.702" height="6.702"/>
			
				<rect x="299.774" y="252.592" transform="matrix(-1 -1.224647e-16 1.224647e-16 -1 606.2489 511.8861)" style="fill:#FAFAFA;" width="6.701" height="6.702"/>
			
				<rect x="318.491" y="262.699" transform="matrix(-1 -1.224647e-16 1.224647e-16 -1 643.6847 532.0988)" style="fill:#FAFAFA;" width="6.702" height="6.701"/>
			
				<rect x="309.133" y="262.699" transform="matrix(-1 -1.224647e-16 1.224647e-16 -1 624.9668 532.0988)" style="fill:#FAFAFA;" width="6.701" height="6.701"/>
			
				<rect x="290.415" y="262.699" transform="matrix(-1 -1.224647e-16 1.224647e-16 -1 587.5309 532.0988)" style="fill:#FAFAFA;" width="6.702" height="6.701"/>
			
				<rect x="318.491" y="313.161" transform="matrix(-1 -1.224647e-16 1.224647e-16 -1 643.6847 633.0241)" style="fill:#FAFAFA;" width="6.702" height="6.701"/>
			
				<rect x="309.133" y="313.161" transform="matrix(-1 -1.224647e-16 1.224647e-16 -1 624.9668 633.0241)" style="fill:#FAFAFA;" width="6.701" height="6.701"/>
			
				<rect x="290.415" y="313.161" transform="matrix(-1 -1.224647e-16 1.224647e-16 -1 587.5309 633.0241)" style="fill:#FAFAFA;" width="6.702" height="6.701"/>
			
				<rect x="318.491" y="323.267" transform="matrix(-1 -1.224647e-16 1.224647e-16 -1 643.6847 653.2364)" style="fill:#FAFAFA;" width="6.702" height="6.702"/>
			
				<rect x="299.774" y="323.267" transform="matrix(-1 -1.224647e-16 1.224647e-16 -1 606.2489 653.2364)" style="fill:#FAFAFA;" width="6.701" height="6.702"/>
			
				<rect x="290.415" y="323.267" transform="matrix(-1 -1.224647e-16 1.224647e-16 -1 587.5309 653.2364)" style="fill:#FAFAFA;" width="6.702" height="6.702"/>
			
				<rect x="318.491" y="343.48" transform="matrix(-1 -1.224647e-16 1.224647e-16 -1 643.6847 693.6615)" style="fill:#FAFAFA;" width="6.702" height="6.701"/>
			
				<rect x="299.774" y="343.48" transform="matrix(-1 -1.224647e-16 1.224647e-16 -1 606.2489 693.6615)" style="fill:#FAFAFA;" width="6.701" height="6.701"/>
			
				<rect x="318.491" y="353.586" transform="matrix(-1 -1.224647e-16 1.224647e-16 -1 643.6847 713.874)" style="fill:#FAFAFA;" width="6.702" height="6.701"/>
			
				<rect x="309.133" y="353.586" transform="matrix(-1 -1.224647e-16 1.224647e-16 -1 624.9668 713.874)" style="fill:#FAFAFA;" width="6.701" height="6.701"/>
			
				<rect x="290.415" y="353.586" transform="matrix(-1 -1.224647e-16 1.224647e-16 -1 587.5309 713.874)" style="fill:#FAFAFA;" width="6.702" height="6.701"/>
			
				<rect x="290.415" y="272.805" transform="matrix(-1 -1.224647e-16 1.224647e-16 -1 587.5309 552.3113)" style="fill:#FAFAFA;" width="6.702" height="6.701"/>
			
				<rect x="318.491" y="282.911" transform="matrix(-1 -1.224647e-16 1.224647e-16 -1 643.6847 572.5238)" style="fill:#FAFAFA;" width="6.702" height="6.701"/>
			
				<rect x="309.133" y="282.911" transform="matrix(-1 -1.224647e-16 1.224647e-16 -1 624.9668 572.5238)" style="fill:#FAFAFA;" width="6.701" height="6.701"/>
			
				<rect x="299.774" y="293.085" transform="matrix(-0.9999 0.0143 -0.0143 -0.9999 610.4651 588.4979)" style="fill:#FAFAFA;" width="6.702" height="6.702"/>
			
				<rect x="290.416" y="293.219" transform="matrix(-0.9999 0.0143 -0.0143 -0.9999 591.7479 588.9049)" style="fill:#FAFAFA;" width="6.701" height="6.701"/>
			
				<rect x="318.491" y="303.124" transform="matrix(-1 -1.224647e-16 1.224647e-16 -1 643.6847 612.9493)" style="fill:#FAFAFA;" width="6.702" height="6.702"/>
		</g>
	</g>
	<g>
		<polygon style="fill:#F0F0F0;" points="79.536,202.389 95.174,202.389 121.126,202.389 121.126,384.487 75.752,384.487 
			75.752,202.389 		"/>
		<g>
			
				<rect x="99.768" y="212.167" transform="matrix(-1 -1.224647e-16 1.224647e-16 -1 206.2368 431.0362)" style="fill:#FAFAFA;" width="6.701" height="6.702"/>
			
				<rect x="90.409" y="212.167" transform="matrix(-1 -1.224647e-16 1.224647e-16 -1 187.5189 431.0362)" style="fill:#FAFAFA;" width="6.701" height="6.702"/>
			
				<rect x="109.127" y="222.274" transform="matrix(-1 -1.224647e-16 1.224647e-16 -1 224.9547 451.2488)" style="fill:#FAFAFA;" width="6.702" height="6.701"/>
			
				<rect x="99.768" y="222.274" transform="matrix(-1 -1.224647e-16 1.224647e-16 -1 206.2368 451.2488)" style="fill:#FAFAFA;" width="6.701" height="6.701"/>
			
				<rect x="81.05" y="222.274" transform="matrix(-1 -1.224647e-16 1.224647e-16 -1 168.8009 451.2488)" style="fill:#FAFAFA;" width="6.702" height="6.701"/>
			
				<rect x="109.127" y="232.38" transform="matrix(-1 -1.224647e-16 1.224647e-16 -1 224.9547 471.461)" style="fill:#FAFAFA;" width="6.702" height="6.702"/>
			
				<rect x="90.409" y="232.38" transform="matrix(-1 -1.224647e-16 1.224647e-16 -1 187.5189 471.461)" style="fill:#FAFAFA;" width="6.701" height="6.702"/>
			
				<rect x="81.05" y="232.38" transform="matrix(-1 -1.224647e-16 1.224647e-16 -1 168.8009 471.461)" style="fill:#FAFAFA;" width="6.702" height="6.702"/>
			
				<rect x="109.127" y="252.592" transform="matrix(-1 -1.224647e-16 1.224647e-16 -1 224.9547 511.8861)" style="fill:#FAFAFA;" width="6.702" height="6.702"/>
			
				<rect x="90.409" y="252.592" transform="matrix(-1 -1.224647e-16 1.224647e-16 -1 187.5189 511.8861)" style="fill:#FAFAFA;" width="6.701" height="6.702"/>
			
				<rect x="109.127" y="262.699" transform="matrix(-1 -1.224647e-16 1.224647e-16 -1 224.9547 532.0988)" style="fill:#FAFAFA;" width="6.702" height="6.701"/>
			
				<rect x="99.768" y="262.699" transform="matrix(-1 -1.224647e-16 1.224647e-16 -1 206.2368 532.0988)" style="fill:#FAFAFA;" width="6.701" height="6.701"/>
			
				<rect x="81.05" y="262.699" transform="matrix(-1 -1.224647e-16 1.224647e-16 -1 168.8009 532.0988)" style="fill:#FAFAFA;" width="6.702" height="6.701"/>
			
				<rect x="109.127" y="313.161" transform="matrix(-1 -1.224647e-16 1.224647e-16 -1 224.9547 633.0241)" style="fill:#FAFAFA;" width="6.702" height="6.701"/>
			
				<rect x="99.768" y="313.161" transform="matrix(-1 -1.224647e-16 1.224647e-16 -1 206.2368 633.0241)" style="fill:#FAFAFA;" width="6.701" height="6.701"/>
			
				<rect x="81.05" y="313.161" transform="matrix(-1 -1.224647e-16 1.224647e-16 -1 168.8009 633.0241)" style="fill:#FAFAFA;" width="6.702" height="6.701"/>
			
				<rect x="109.127" y="323.267" transform="matrix(-1 -1.224647e-16 1.224647e-16 -1 224.9547 653.2364)" style="fill:#FAFAFA;" width="6.702" height="6.702"/>
			
				<rect x="90.409" y="323.267" transform="matrix(-1 -1.224647e-16 1.224647e-16 -1 187.5189 653.2364)" style="fill:#FAFAFA;" width="6.701" height="6.702"/>
			
				<rect x="81.05" y="323.267" transform="matrix(-1 -1.224647e-16 1.224647e-16 -1 168.8009 653.2364)" style="fill:#FAFAFA;" width="6.702" height="6.702"/>
			
				<rect x="109.127" y="343.48" transform="matrix(-1 -1.224647e-16 1.224647e-16 -1 224.9547 693.6615)" style="fill:#FAFAFA;" width="6.702" height="6.701"/>
			
				<rect x="90.409" y="343.48" transform="matrix(-1 -1.224647e-16 1.224647e-16 -1 187.5189 693.6615)" style="fill:#FAFAFA;" width="6.701" height="6.701"/>
			
				<rect x="109.127" y="353.586" transform="matrix(-1 -1.224647e-16 1.224647e-16 -1 224.9547 713.874)" style="fill:#FAFAFA;" width="6.702" height="6.701"/>
			
				<rect x="99.768" y="353.586" transform="matrix(-1 -1.224647e-16 1.224647e-16 -1 206.2368 713.874)" style="fill:#FAFAFA;" width="6.701" height="6.701"/>
			
				<rect x="81.05" y="353.586" transform="matrix(-1 -1.224647e-16 1.224647e-16 -1 168.8009 713.874)" style="fill:#FAFAFA;" width="6.702" height="6.701"/>
			
				<rect x="81.05" y="272.805" transform="matrix(-1 -1.224647e-16 1.224647e-16 -1 168.8009 552.3113)" style="fill:#FAFAFA;" width="6.702" height="6.701"/>
			
				<rect x="109.127" y="282.911" transform="matrix(-1 -1.224647e-16 1.224647e-16 -1 224.9547 572.5238)" style="fill:#FAFAFA;" width="6.702" height="6.701"/>
			
				<rect x="99.768" y="282.911" transform="matrix(-1 -1.224647e-16 1.224647e-16 -1 206.2368 572.5238)" style="fill:#FAFAFA;" width="6.701" height="6.701"/>
			
				<rect x="90.409" y="293.085" transform="matrix(-0.9999 0.0143 -0.0143 -0.9999 191.7566 591.4971)" style="fill:#FAFAFA;" width="6.702" height="6.702"/>
			
				<rect x="81.051" y="293.219" transform="matrix(-0.9999 0.0143 -0.0143 -0.9999 173.0393 591.9009)" style="fill:#FAFAFA;" width="6.701" height="6.701"/>
			
				<rect x="109.127" y="303.124" transform="matrix(-1 -1.224647e-16 1.224647e-16 -1 224.9547 612.9493)" style="fill:#FAFAFA;" width="6.702" height="6.702"/>
		</g>
	</g>
	<g>
		<polygon style="fill:#F0F0F0;" points="169.042,384.487 218.882,384.487 218.882,173.58 169.042,178.915 		"/>
		
			<rect x="202.576" y="182.467" transform="matrix(-1 -1.224647e-16 1.224647e-16 -1 418.7739 378.5547)" style="fill:#FAFAFA;" width="13.621" height="13.622"/>
		
			<rect x="187.151" y="182.467" transform="matrix(-1 -1.224647e-16 1.224647e-16 -1 387.924 378.5547)" style="fill:#F0F0F0;" width="13.621" height="13.622"/>
		
			<rect x="171.727" y="182.467" transform="matrix(-1 -1.224647e-16 1.224647e-16 -1 357.0744 378.5547)" style="fill:#FAFAFA;" width="13.621" height="13.622"/>
		
			<rect x="202.576" y="197.68" transform="matrix(-1 -1.224647e-16 1.224647e-16 -1 418.7739 408.9824)" style="fill:#FAFAFA;" width="13.621" height="13.621"/>
		
			<rect x="187.151" y="197.68" transform="matrix(-1 -1.224647e-16 1.224647e-16 -1 387.924 408.9824)" style="fill:#FAFAFA;" width="13.621" height="13.621"/>
		
			<rect x="171.727" y="197.68" transform="matrix(-1 -1.224647e-16 1.224647e-16 -1 357.0744 408.9824)" style="fill:#FAFAFA;" width="13.621" height="13.621"/>
		
			<rect x="202.576" y="212.894" transform="matrix(-1 -1.224647e-16 1.224647e-16 -1 418.7739 439.41)" style="fill:#FAFAFA;" width="13.621" height="13.621"/>
		
			<rect x="187.151" y="212.894" transform="matrix(-1 -1.224647e-16 1.224647e-16 -1 387.924 439.41)" style="fill:#F0F0F0;" width="13.621" height="13.621"/>
		
			<rect x="171.727" y="212.894" transform="matrix(-1 -1.224647e-16 1.224647e-16 -1 357.0744 439.41)" style="fill:#FAFAFA;" width="13.621" height="13.621"/>
		
			<rect x="202.576" y="228.108" transform="matrix(-1 -1.224647e-16 1.224647e-16 -1 418.7739 469.8376)" style="fill:#F0F0F0;" width="13.621" height="13.621"/>
		
			<rect x="187.151" y="228.108" transform="matrix(-1 -1.224647e-16 1.224647e-16 -1 387.924 469.8376)" style="fill:#FAFAFA;" width="13.621" height="13.621"/>
		
			<rect x="171.727" y="228.108" transform="matrix(-1 -1.224647e-16 1.224647e-16 -1 357.0744 469.8376)" style="fill:#FAFAFA;" width="13.621" height="13.621"/>
		
			<rect x="202.576" y="243.322" transform="matrix(-1 -1.224647e-16 1.224647e-16 -1 418.7739 500.2652)" style="fill:#FAFAFA;" width="13.621" height="13.621"/>
		
			<rect x="187.151" y="243.322" transform="matrix(-1 -1.224647e-16 1.224647e-16 -1 387.924 500.2652)" style="fill:#FAFAFA;" width="13.621" height="13.621"/>
		
			<rect x="171.727" y="243.322" transform="matrix(-1 -1.224647e-16 1.224647e-16 -1 357.0744 500.2652)" style="fill:#F0F0F0;" width="13.621" height="13.621"/>
		
			<rect x="202.576" y="258.536" transform="matrix(-1 -1.224647e-16 1.224647e-16 -1 418.7739 530.6928)" style="fill:#FAFAFA;" width="13.621" height="13.621"/>
		
			<rect x="187.151" y="258.536" transform="matrix(-1 -1.224647e-16 1.224647e-16 -1 387.924 530.6928)" style="fill:#F0F0F0;" width="13.621" height="13.621"/>
		
			<rect x="171.727" y="258.536" transform="matrix(-1 -1.224647e-16 1.224647e-16 -1 357.0744 530.6928)" style="fill:#FAFAFA;" width="13.621" height="13.621"/>
		
			<rect x="202.576" y="273.75" transform="matrix(-1 -1.224647e-16 1.224647e-16 -1 418.7739 561.1203)" style="fill:#F0F0F0;" width="13.621" height="13.621"/>
		
			<rect x="187.151" y="273.75" transform="matrix(-1 -1.224647e-16 1.224647e-16 -1 387.924 561.1203)" style="fill:#F0F0F0;" width="13.621" height="13.621"/>
		
			<rect x="171.727" y="273.75" transform="matrix(-1 -1.224647e-16 1.224647e-16 -1 357.0744 561.1203)" style="fill:#FAFAFA;" width="13.621" height="13.621"/>
		
			<rect x="202.576" y="288.963" transform="matrix(-1 -1.224647e-16 1.224647e-16 -1 418.7739 591.548)" style="fill:#FAFAFA;" width="13.621" height="13.621"/>
		
			<rect x="187.151" y="288.963" transform="matrix(-1 -1.224647e-16 1.224647e-16 -1 387.924 591.548)" style="fill:#F0F0F0;" width="13.621" height="13.621"/>
		
			<rect x="171.727" y="288.963" transform="matrix(-1 -1.224647e-16 1.224647e-16 -1 357.0744 591.548)" style="fill:#FAFAFA;" width="13.621" height="13.621"/>
		
			<rect x="202.576" y="304.177" transform="matrix(-1 -1.224647e-16 1.224647e-16 -1 418.7739 621.9755)" style="fill:#FAFAFA;" width="13.621" height="13.621"/>
		
			<rect x="187.151" y="304.177" transform="matrix(-1 -1.224647e-16 1.224647e-16 -1 387.924 621.9755)" style="fill:#FAFAFA;" width="13.621" height="13.621"/>
		
			<rect x="171.727" y="304.177" transform="matrix(-1 -1.224647e-16 1.224647e-16 -1 357.0744 621.9755)" style="fill:#FAFAFA;" width="13.621" height="13.621"/>
		
			<rect x="202.576" y="319.391" transform="matrix(-1 -1.224647e-16 1.224647e-16 -1 418.7739 652.4031)" style="fill:#F0F0F0;" width="13.621" height="13.621"/>
		
			<rect x="187.151" y="319.391" transform="matrix(-1 -1.224647e-16 1.224647e-16 -1 387.924 652.4031)" style="fill:#FAFAFA;" width="13.621" height="13.621"/>
		
			<rect x="171.727" y="319.391" transform="matrix(-1 -1.224647e-16 1.224647e-16 -1 357.0744 652.4031)" style="fill:#F0F0F0;" width="13.621" height="13.621"/>
		
			<rect x="202.576" y="334.605" transform="matrix(-1 -1.224647e-16 1.224647e-16 -1 418.7739 682.8307)" style="fill:#FAFAFA;" width="13.621" height="13.622"/>
		
			<rect x="187.151" y="334.605" transform="matrix(-1 -1.224647e-16 1.224647e-16 -1 387.924 682.8307)" style="fill:#F0F0F0;" width="13.621" height="13.622"/>
		
			<rect x="171.727" y="334.605" transform="matrix(-1 -1.224647e-16 1.224647e-16 -1 357.0744 682.8307)" style="fill:#FAFAFA;" width="13.621" height="13.622"/>
		
			<rect x="202.576" y="349.819" transform="matrix(-1 -1.224647e-16 1.224647e-16 -1 418.7739 713.2583)" style="fill:#F0F0F0;" width="13.621" height="13.621"/>
		
			<rect x="187.151" y="349.819" transform="matrix(-1 -1.224647e-16 1.224647e-16 -1 387.924 713.2583)" style="fill:#FAFAFA;" width="13.621" height="13.621"/>
		
			<rect x="171.727" y="349.819" transform="matrix(-1 -1.224647e-16 1.224647e-16 -1 357.0744 713.2583)" style="fill:#FAFAFA;" width="13.621" height="13.621"/>
	</g>
	<g>
		<polygon style="fill:#F0F0F0;" points="335.295,384.487 375.64,384.487 375.64,213.76 335.295,218.079 		"/>
		
			<rect x="362.44" y="220.954" transform="matrix(-1 -1.224647e-16 1.224647e-16 -1 735.9069 452.9338)" style="fill:#FAFAFA;" width="11.026" height="11.026"/>
		
			<rect x="349.954" y="220.954" transform="matrix(-1 -1.224647e-16 1.224647e-16 -1 710.9342 452.9338)" style="fill:#F0F0F0;" width="11.026" height="11.026"/>
		
			<rect x="337.468" y="220.954" transform="matrix(-1 -1.224647e-16 1.224647e-16 -1 685.9618 452.9338)" style="fill:#FAFAFA;" width="11.026" height="11.026"/>
		
			<rect x="362.44" y="233.269" transform="matrix(-1 -1.224647e-16 1.224647e-16 -1 735.9069 477.5646)" style="fill:#FAFAFA;" width="11.026" height="11.026"/>
		
			<rect x="349.954" y="233.269" transform="matrix(-1 -1.224647e-16 1.224647e-16 -1 710.9342 477.5646)" style="fill:#FAFAFA;" width="11.026" height="11.026"/>
		
			<rect x="337.468" y="233.269" transform="matrix(-1 -1.224647e-16 1.224647e-16 -1 685.9618 477.5646)" style="fill:#FAFAFA;" width="11.026" height="11.026"/>
		
			<rect x="362.44" y="245.585" transform="matrix(-1 -1.224647e-16 1.224647e-16 -1 735.9069 502.1954)" style="fill:#FAFAFA;" width="11.026" height="11.026"/>
		
			<rect x="349.954" y="245.585" transform="matrix(-1 -1.224647e-16 1.224647e-16 -1 710.9342 502.1954)" style="fill:#F0F0F0;" width="11.026" height="11.026"/>
		
			<rect x="337.468" y="245.585" transform="matrix(-1 -1.224647e-16 1.224647e-16 -1 685.9618 502.1954)" style="fill:#FAFAFA;" width="11.026" height="11.026"/>
		
			<rect x="362.44" y="257.9" transform="matrix(-1 -1.224647e-16 1.224647e-16 -1 735.9069 526.8262)" style="fill:#F0F0F0;" width="11.026" height="11.026"/>
		
			<rect x="349.954" y="257.9" transform="matrix(-1 -1.224647e-16 1.224647e-16 -1 710.9342 526.8262)" style="fill:#FAFAFA;" width="11.026" height="11.026"/>
		
			<rect x="337.468" y="257.9" transform="matrix(-1 -1.224647e-16 1.224647e-16 -1 685.9618 526.8262)" style="fill:#FAFAFA;" width="11.026" height="11.026"/>
		
			<rect x="362.44" y="270.215" transform="matrix(-1 -1.224647e-16 1.224647e-16 -1 735.9069 551.457)" style="fill:#FAFAFA;" width="11.026" height="11.026"/>
		
			<rect x="349.954" y="270.215" transform="matrix(-1 -1.224647e-16 1.224647e-16 -1 710.9342 551.457)" style="fill:#FAFAFA;" width="11.026" height="11.026"/>
		
			<rect x="337.468" y="270.215" transform="matrix(-1 -1.224647e-16 1.224647e-16 -1 685.9618 551.457)" style="fill:#F0F0F0;" width="11.026" height="11.026"/>
		
			<rect x="362.44" y="282.531" transform="matrix(-1 -1.224647e-16 1.224647e-16 -1 735.9069 576.0878)" style="fill:#FAFAFA;" width="11.026" height="11.026"/>
		
			<rect x="349.954" y="282.531" transform="matrix(-1 -1.224647e-16 1.224647e-16 -1 710.9342 576.0878)" style="fill:#F0F0F0;" width="11.026" height="11.026"/>
		
			<rect x="337.468" y="282.531" transform="matrix(-1 -1.224647e-16 1.224647e-16 -1 685.9618 576.0878)" style="fill:#FAFAFA;" width="11.026" height="11.026"/>
		
			<rect x="362.44" y="294.846" transform="matrix(-1 -1.224647e-16 1.224647e-16 -1 735.9069 600.7186)" style="fill:#F0F0F0;" width="11.026" height="11.026"/>
		
			<rect x="349.954" y="294.846" transform="matrix(-1 -1.224647e-16 1.224647e-16 -1 710.9342 600.7186)" style="fill:#F0F0F0;" width="11.026" height="11.026"/>
		
			<rect x="337.468" y="294.846" transform="matrix(-1 -1.224647e-16 1.224647e-16 -1 685.9618 600.7186)" style="fill:#FAFAFA;" width="11.026" height="11.026"/>
		
			<rect x="362.44" y="307.161" transform="matrix(-1 -1.224647e-16 1.224647e-16 -1 735.9069 625.3495)" style="fill:#FAFAFA;" width="11.026" height="11.026"/>
		
			<rect x="349.954" y="307.161" transform="matrix(-1 -1.224647e-16 1.224647e-16 -1 710.9342 625.3495)" style="fill:#F0F0F0;" width="11.026" height="11.026"/>
		
			<rect x="337.468" y="307.161" transform="matrix(-1 -1.224647e-16 1.224647e-16 -1 685.9618 625.3495)" style="fill:#FAFAFA;" width="11.026" height="11.026"/>
		
			<rect x="362.44" y="319.477" transform="matrix(-1 -1.224647e-16 1.224647e-16 -1 735.9069 649.9803)" style="fill:#FAFAFA;" width="11.026" height="11.026"/>
		
			<rect x="349.954" y="319.477" transform="matrix(-1 -1.224647e-16 1.224647e-16 -1 710.9342 649.9803)" style="fill:#FAFAFA;" width="11.026" height="11.026"/>
		
			<rect x="337.468" y="319.477" transform="matrix(-1 -1.224647e-16 1.224647e-16 -1 685.9618 649.9803)" style="fill:#FAFAFA;" width="11.026" height="11.026"/>
		
			<rect x="362.44" y="331.792" transform="matrix(-1 -1.224647e-16 1.224647e-16 -1 735.9069 674.6111)" style="fill:#F0F0F0;" width="11.026" height="11.026"/>
		
			<rect x="349.954" y="331.792" transform="matrix(-1 -1.224647e-16 1.224647e-16 -1 710.9342 674.6111)" style="fill:#FAFAFA;" width="11.026" height="11.026"/>
		
			<rect x="337.468" y="331.792" transform="matrix(-1 -1.224647e-16 1.224647e-16 -1 685.9618 674.6111)" style="fill:#F0F0F0;" width="11.026" height="11.026"/>
		
			<rect x="362.44" y="344.108" transform="matrix(-1 -1.224647e-16 1.224647e-16 -1 735.9069 699.2419)" style="fill:#FAFAFA;" width="11.026" height="11.026"/>
		
			<rect x="349.954" y="344.108" transform="matrix(-1 -1.224647e-16 1.224647e-16 -1 710.9342 699.2419)" style="fill:#F0F0F0;" width="11.026" height="11.026"/>
		
			<rect x="337.468" y="344.108" transform="matrix(-1 -1.224647e-16 1.224647e-16 -1 685.9618 699.2419)" style="fill:#FAFAFA;" width="11.026" height="11.026"/>
		
			<rect x="362.44" y="356.423" transform="matrix(-1 -1.224647e-16 1.224647e-16 -1 735.9069 723.8727)" style="fill:#F0F0F0;" width="11.026" height="11.026"/>
		
			<rect x="349.954" y="356.423" transform="matrix(-1 -1.224647e-16 1.224647e-16 -1 710.9342 723.8727)" style="fill:#FAFAFA;" width="11.026" height="11.026"/>
		
			<rect x="337.468" y="356.423" transform="matrix(-1 -1.224647e-16 1.224647e-16 -1 685.9618 723.8727)" style="fill:#FAFAFA;" width="11.026" height="11.026"/>
	</g>
	<g>
		<polygon style="fill:#F5F5F5;" points="124.36,384.886 164.705,384.886 164.705,214.159 124.36,218.478 		"/>
		
			<rect x="151.506" y="221.353" transform="matrix(-1 -1.224647e-16 1.224647e-16 -1 314.0382 453.7326)" style="fill:#FAFAFA;" width="11.026" height="11.026"/>
		
			<rect x="139.02" y="221.353" transform="matrix(-1 -1.224647e-16 1.224647e-16 -1 289.0656 453.7326)" style="fill:#F0F0F0;" width="11.026" height="11.026"/>
		
			<rect x="126.533" y="221.353" transform="matrix(-1 -1.224647e-16 1.224647e-16 -1 264.0932 453.7326)" style="fill:#FAFAFA;" width="11.026" height="11.026"/>
		
			<rect x="151.506" y="233.669" transform="matrix(-1 -1.224647e-16 1.224647e-16 -1 314.0382 478.3634)" style="fill:#FAFAFA;" width="11.026" height="11.026"/>
		
			<rect x="139.02" y="233.669" transform="matrix(-1 -1.224647e-16 1.224647e-16 -1 289.0656 478.3634)" style="fill:#FAFAFA;" width="11.026" height="11.026"/>
		
			<rect x="126.533" y="233.669" transform="matrix(-1 -1.224647e-16 1.224647e-16 -1 264.0932 478.3634)" style="fill:#FAFAFA;" width="11.026" height="11.026"/>
		
			<rect x="151.506" y="245.984" transform="matrix(-1 -1.224647e-16 1.224647e-16 -1 314.0382 502.9942)" style="fill:#FAFAFA;" width="11.026" height="11.026"/>
		
			<rect x="139.02" y="245.984" transform="matrix(-1 -1.224647e-16 1.224647e-16 -1 289.0656 502.9942)" style="fill:#F0F0F0;" width="11.026" height="11.026"/>
		
			<rect x="126.533" y="245.984" transform="matrix(-1 -1.224647e-16 1.224647e-16 -1 264.0932 502.9942)" style="fill:#FAFAFA;" width="11.026" height="11.026"/>
		
			<rect x="151.506" y="258.299" transform="matrix(-1 -1.224647e-16 1.224647e-16 -1 314.0382 527.625)" style="fill:#F0F0F0;" width="11.026" height="11.026"/>
		
			<rect x="139.02" y="258.299" transform="matrix(-1 -1.224647e-16 1.224647e-16 -1 289.0656 527.625)" style="fill:#FAFAFA;" width="11.026" height="11.026"/>
		
			<rect x="126.533" y="258.299" transform="matrix(-1 -1.224647e-16 1.224647e-16 -1 264.0932 527.625)" style="fill:#FAFAFA;" width="11.026" height="11.026"/>
		
			<rect x="151.506" y="270.615" transform="matrix(-1 -1.224647e-16 1.224647e-16 -1 314.0382 552.2558)" style="fill:#FAFAFA;" width="11.026" height="11.026"/>
		
			<rect x="139.02" y="270.615" transform="matrix(-1 -1.224647e-16 1.224647e-16 -1 289.0656 552.2558)" style="fill:#FAFAFA;" width="11.026" height="11.026"/>
		
			<rect x="126.533" y="270.615" transform="matrix(-1 -1.224647e-16 1.224647e-16 -1 264.0932 552.2558)" style="fill:#F0F0F0;" width="11.026" height="11.026"/>
		
			<rect x="151.506" y="282.93" transform="matrix(-1 -1.224647e-16 1.224647e-16 -1 314.0382 576.8866)" style="fill:#FAFAFA;" width="11.026" height="11.026"/>
		
			<rect x="139.02" y="282.93" transform="matrix(-1 -1.224647e-16 1.224647e-16 -1 289.0656 576.8866)" style="fill:#F0F0F0;" width="11.026" height="11.026"/>
		
			<rect x="126.533" y="282.93" transform="matrix(-1 -1.224647e-16 1.224647e-16 -1 264.0932 576.8866)" style="fill:#FAFAFA;" width="11.026" height="11.026"/>
		
			<rect x="151.506" y="295.246" transform="matrix(-1 -1.224647e-16 1.224647e-16 -1 314.0382 601.5173)" style="fill:#F0F0F0;" width="11.026" height="11.026"/>
		
			<rect x="139.02" y="295.246" transform="matrix(-1 -1.224647e-16 1.224647e-16 -1 289.0656 601.5173)" style="fill:#F0F0F0;" width="11.026" height="11.026"/>
		
			<rect x="126.533" y="295.246" transform="matrix(-1 -1.224647e-16 1.224647e-16 -1 264.0932 601.5173)" style="fill:#FAFAFA;" width="11.026" height="11.026"/>
		
			<rect x="151.506" y="307.561" transform="matrix(-1 -1.224647e-16 1.224647e-16 -1 314.0382 626.1482)" style="fill:#FAFAFA;" width="11.026" height="11.026"/>
		
			<rect x="139.02" y="307.561" transform="matrix(-1 -1.224647e-16 1.224647e-16 -1 289.0656 626.1482)" style="fill:#F0F0F0;" width="11.026" height="11.026"/>
		
			<rect x="126.533" y="307.561" transform="matrix(-1 -1.224647e-16 1.224647e-16 -1 264.0932 626.1482)" style="fill:#FAFAFA;" width="11.026" height="11.026"/>
		
			<rect x="151.506" y="319.876" transform="matrix(-1 -1.224647e-16 1.224647e-16 -1 314.0382 650.7789)" style="fill:#FAFAFA;" width="11.026" height="11.026"/>
		
			<rect x="139.02" y="319.876" transform="matrix(-1 -1.224647e-16 1.224647e-16 -1 289.0656 650.7789)" style="fill:#FAFAFA;" width="11.026" height="11.026"/>
		
			<rect x="126.533" y="319.876" transform="matrix(-1 -1.224647e-16 1.224647e-16 -1 264.0932 650.7789)" style="fill:#FAFAFA;" width="11.026" height="11.026"/>
		
			<rect x="151.506" y="332.192" transform="matrix(-1 -1.224647e-16 1.224647e-16 -1 314.0382 675.4097)" style="fill:#F0F0F0;" width="11.026" height="11.026"/>
		
			<rect x="139.02" y="332.192" transform="matrix(-1 -1.224647e-16 1.224647e-16 -1 289.0656 675.4097)" style="fill:#FAFAFA;" width="11.026" height="11.026"/>
		
			<rect x="126.533" y="332.192" transform="matrix(-1 -1.224647e-16 1.224647e-16 -1 264.0932 675.4097)" style="fill:#F0F0F0;" width="11.026" height="11.026"/>
		
			<rect x="151.506" y="344.507" transform="matrix(-1 -1.224647e-16 1.224647e-16 -1 314.0382 700.0405)" style="fill:#FAFAFA;" width="11.026" height="11.026"/>
		
			<rect x="139.02" y="344.507" transform="matrix(-1 -1.224647e-16 1.224647e-16 -1 289.0656 700.0405)" style="fill:#F0F0F0;" width="11.026" height="11.026"/>
		
			<rect x="126.533" y="344.507" transform="matrix(-1 -1.224647e-16 1.224647e-16 -1 264.0932 700.0405)" style="fill:#FAFAFA;" width="11.026" height="11.026"/>
		
			<rect x="151.506" y="356.823" transform="matrix(-1 -1.224647e-16 1.224647e-16 -1 314.0382 724.6713)" style="fill:#F0F0F0;" width="11.026" height="11.026"/>
		
			<rect x="139.02" y="356.823" transform="matrix(-1 -1.224647e-16 1.224647e-16 -1 289.0656 724.6713)" style="fill:#FAFAFA;" width="11.026" height="11.026"/>
		
			<rect x="126.533" y="356.823" transform="matrix(-1 -1.224647e-16 1.224647e-16 -1 264.0932 724.6713)" style="fill:#FAFAFA;" width="11.026" height="11.026"/>
	</g>
	<path style="fill:#FAFAFA;" d="M328.526,117.677c-1.406,0-2.621,0.456-3.542,1.221c0.202-1.045,0.222-2.17,0.009-3.351
		c-0.955-5.295-6.022-9.587-11.317-9.587c-1.627,0-3.085,0.409-4.298,1.124c-2.02-3.631-5.982-6.22-10.09-6.22
		c-5.295,0-8.813,4.292-7.857,9.587c0.078,0.434,0.194,0.858,0.325,1.277c-0.844-0.219-1.709-0.346-2.582-0.346
		c-5.295,0-8.813,4.292-7.857,9.587c0.956,5.295,6.022,9.587,11.317,9.587c5.295,0,34.659,0,38.215,0s5.919-2.883,5.277-6.439
		C335.485,120.56,332.082,117.677,328.526,117.677z"/>
</g>
<g id="Background_Simple" style="display:none;">
	<g style="display:inline;">
		<path style="fill:#407BFF;" d="M371.614,122.021c21.601,14.759,34.497,52.771,40.609,72.392
			c9.522,30.569,30.115,71.2,2.033,115.142c-25.407,39.756-62.277,43.686-87.094,58.994c-16.466,10.157-35.507,29.617-69.777,30.493
			c-35.172,0.9-47.355-8.932-72.546-20.27c-29.859-13.439-55.933-7.996-79.527-29.462c-20.203-18.381-16.93-61.513-21.342-86.568
			c-3.157-17.929-18.293-47.094-9.959-74.9c8.832-29.468,43.286-39.107,57.723-52.056c13.258-11.892,20.138-36.529,52.737-45.951
			c27.195-7.86,69.05,9.165,89.437,12.881C300.365,107.538,339.121,99.821,371.614,122.021z"/>
		<path style="opacity:0.9;fill:#FFFFFF;" d="M371.614,122.021c21.601,14.759,34.497,52.771,40.609,72.392
			c9.522,30.569,30.115,71.2,2.033,115.142c-25.407,39.756-62.277,43.686-87.094,58.994c-16.466,10.157-35.507,29.617-69.777,30.493
			c-35.172,0.9-47.355-8.932-72.546-20.27c-29.859-13.439-55.933-7.996-79.527-29.462c-20.203-18.381-16.93-61.513-21.342-86.568
			c-3.157-17.929-18.293-47.094-9.959-74.9c8.832-29.468,43.286-39.107,57.723-52.056c13.258-11.892,20.138-36.529,52.737-45.951
			c27.195-7.86,69.05,9.165,89.437,12.881C300.365,107.538,339.121,99.821,371.614,122.021z"/>
	</g>
</g>
<g id="Shadow">
	<ellipse id="_x3C_Path_x3E__1_" style="fill:#F5F5F5;" cx="250" cy="412.391" rx="193.889" ry="11.323"/>
</g>
<g id="Graphics">
	<g>
		<g>
			<path style="fill:#407BFF;" d="M399.993,139.596c-8.263-1.989-15.706-5.362-21.992-9.671c-6.286,4.309-13.729,7.683-21.992,9.671
				c-2.928,0.705-5.842,1.198-8.724,1.512c-0.001,0.136-0.012,0.269-0.012,0.405c0,27.007,12.115,45.847,30.728,60.583
				c18.613-14.736,30.727-33.576,30.727-60.583c0-0.136-0.011-0.269-0.011-0.405C405.836,140.794,402.922,140.301,399.993,139.596z"
				/>
			<path style="opacity:0.1;" d="M378.001,129.924c-6.286,4.309-13.729,7.683-21.992,9.671c-2.928,0.705-5.842,1.198-8.724,1.512
				c-0.001,0.136-0.012,0.269-0.012,0.405c0,27.007,12.115,45.847,30.728,60.583V129.924z"/>
			<g style="opacity:0.5;">
				<path style="fill:#FFFFFF;" d="M378.002,197.203l-0.824-0.705c-16.772-14.354-25.036-30.54-26.007-50.937l-0.053-1.119
					l1.104-0.189c1.582-0.272,3.156-0.595,4.679-0.962c7.366-1.774,14.243-4.602,20.438-8.406l0.663-0.407l0.663,0.407
					c6.195,3.805,13.072,6.632,20.439,8.406l0,0c1.532,0.369,3.105,0.692,4.678,0.961l1.105,0.189l-0.053,1.12
					c-0.975,20.399-9.239,36.584-26.008,50.936L378.002,197.203z M353.763,146.55c1.159,18.797,8.888,33.882,24.239,47.31
					c15.348-13.425,23.077-28.51,24.24-47.309c-1.254-0.234-2.504-0.501-3.73-0.796l-0.001-0.001
					c-7.365-1.772-14.261-4.567-20.509-8.308c-6.249,3.741-13.144,6.535-20.509,8.308
					C356.273,146.048,355.023,146.315,353.763,146.55z"/>
			</g>
			<path style="opacity:0.9;fill:#F0F0F0;" d="M378.002,193.86L378.002,193.86c-15.351-13.427-23.08-28.512-24.239-47.309
				c1.261-0.236,2.511-0.502,3.73-0.796c7.365-1.773,14.26-4.567,20.509-8.308l0,0v-2.968l0,0l-0.663,0.407
				c-6.195,3.804-13.072,6.632-20.438,8.406c-1.523,0.367-3.097,0.69-4.679,0.962l-1.104,0.189l0.053,1.119
				c0.971,20.397,9.235,36.582,26.007,50.937l0.824,0.705l0,0V193.86z"/>
			<g style="opacity:0.2;">
				<polygon style="fill:#407BFF;" points="376.262,177.638 362.805,164.182 366.809,160.176 376.262,169.629 393.393,152.497 
					397.398,156.503 				"/>
			</g>
			<g style="opacity:0.9;">
				<polygon style="fill:#FFFFFF;" points="376.262,177.638 362.805,164.182 366.809,160.176 376.262,169.629 393.393,152.497 
					397.398,156.503 				"/>
			</g>
		</g>
		<g>
			<g>
				<path style="fill:#407BFF;" d="M366.054,247.864h-8.646c-5.02,0-9.103-4.084-9.103-9.103v-8.646c0-5.02,4.084-9.103,9.103-9.103
					h8.646c5.02,0,9.103,4.083,9.103,9.103v8.646C375.158,243.78,371.074,247.864,366.054,247.864z M357.409,223.664
					c-3.557,0-6.451,2.894-6.451,6.451v8.646c0,3.557,2.894,6.451,6.451,6.451h8.646c3.557,0,6.451-2.894,6.451-6.451v-8.646
					c0-3.557-2.894-6.451-6.451-6.451H357.409z"/>
			</g>
			<g style="opacity:0.6;">
				<path style="fill:#FFFFFF;" d="M366.054,247.864h-8.646c-5.02,0-9.103-4.084-9.103-9.103v-8.646c0-5.02,4.084-9.103,9.103-9.103
					h8.646c5.02,0,9.103,4.083,9.103,9.103v8.646C375.158,243.78,371.074,247.864,366.054,247.864z M357.409,223.664
					c-3.557,0-6.451,2.894-6.451,6.451v8.646c0,3.557,2.894,6.451,6.451,6.451h8.646c3.557,0,6.451-2.894,6.451-6.451v-8.646
					c0-3.557-2.894-6.451-6.451-6.451H357.409z"/>
			</g>
			<g>
				<g>
					<polygon style="fill:#407BFF;" points="360.788,241.821 348.181,229.215 351.932,225.463 360.788,234.318 376.836,218.27 
						380.587,222.022 					"/>
				</g>
			</g>
		</g>
		<g>
			<g>
				<path style="fill:#407BFF;" d="M175.561,151.067h-7.645c-4.439,0-8.049-3.611-8.049-8.049v-7.645
					c0-4.439,3.611-8.049,8.049-8.049h7.645c4.439,0,8.05,3.611,8.05,8.049v7.645C183.61,147.456,179.999,151.067,175.561,151.067z
					 M167.916,129.669c-3.145,0-5.704,2.559-5.704,5.704v7.645c0,3.145,2.559,5.704,5.704,5.704h7.645
					c3.145,0,5.704-2.559,5.704-5.704v-7.645c0-3.145-2.559-5.704-5.704-5.704H167.916z"/>
			</g>
			<g style="opacity:0.6;">
				<path style="fill:#FFFFFF;" d="M175.561,151.067h-7.645c-4.439,0-8.049-3.611-8.049-8.049v-7.645
					c0-4.439,3.611-8.049,8.049-8.049h7.645c4.439,0,8.05,3.611,8.05,8.049v7.645C183.61,147.456,179.999,151.067,175.561,151.067z
					 M167.916,129.669c-3.145,0-5.704,2.559-5.704,5.704v7.645c0,3.145,2.559,5.704,5.704,5.704h7.645
					c3.145,0,5.704-2.559,5.704-5.704v-7.645c0-3.145-2.559-5.704-5.704-5.704H167.916z"/>
			</g>
			<g>
				<g>
					<polygon style="fill:#407BFF;" points="170.904,145.724 159.757,134.577 163.074,131.26 170.904,139.089 185.094,124.899 
						188.411,128.217 					"/>
				</g>
			</g>
		</g>
	</g>
</g>
<g id="Building">
	<g>
		<g>
			<rect x="285.106" y="128.936" style="fill:#407BFF;" width="34.927" height="32.469"/>
			<rect x="285.106" y="128.936" style="opacity:0.3;fill:#FFFFFF;" width="34.927" height="32.469"/>
			<rect x="318.076" y="128.936" style="fill:#407BFF;" width="17.463" height="32.469"/>
			<rect x="297.085" y="135.31" style="fill:#263238;" width="10.97" height="26.096"/>
			<rect x="297.085" y="135.31" style="fill:#407BFF;" width="2.742" height="26.096"/>
		</g>
		<g>
			<rect x="207.584" y="157.081" style="fill:#407BFF;" width="90.969" height="258.398"/>
			<rect x="207.584" y="157.081" style="opacity:0.6;fill:#FFFFFF;" width="90.969" height="258.398"/>
		</g>
		<polygon style="fill:#407BFF;" points="297.187,157.081 297.187,195.286 277.117,195.286 277.117,203.756 297.187,203.756 
			297.187,236.508 277.117,236.508 277.117,244.978 297.187,244.978 297.187,277.729 277.117,277.729 277.117,286.199 
			297.187,286.199 297.187,318.951 277.117,318.951 277.117,327.421 297.187,327.421 297.187,360.172 277.117,360.172 
			277.117,368.643 297.187,368.643 297.187,415.48 340.196,415.48 340.196,157.081 		"/>
		<polygon style="opacity:0.2;fill:#FFFFFF;" points="297.187,157.081 297.187,195.286 277.117,195.286 277.117,203.756 
			297.187,203.756 297.187,236.508 277.117,236.508 277.117,244.978 297.187,244.978 297.187,277.729 277.117,277.729 
			277.117,286.199 297.187,286.199 297.187,318.951 277.117,318.951 277.117,327.421 297.187,327.421 297.187,360.172 
			277.117,360.172 277.117,368.643 297.187,368.643 297.187,415.48 340.196,415.48 340.196,157.081 		"/>
		<g>
			<g>
				<rect x="194.84" y="360.172" style="fill:#407BFF;" width="83.407" height="8.47"/>
				<rect x="194.84" y="318.951" style="fill:#407BFF;" width="83.407" height="8.47"/>
				<rect x="194.84" y="277.729" style="fill:#407BFF;" width="83.407" height="8.47"/>
				<rect x="194.84" y="236.508" style="fill:#407BFF;" width="83.407" height="8.47"/>
				<rect x="194.84" y="195.286" style="fill:#407BFF;" width="83.407" height="8.47"/>
			</g>
			<g style="opacity:0.4;">
				<rect x="194.84" y="360.172" style="fill:#FFFFFF;" width="83.407" height="8.47"/>
				<rect x="194.84" y="318.951" style="fill:#FFFFFF;" width="83.407" height="8.47"/>
				<rect x="194.84" y="277.729" style="fill:#FFFFFF;" width="83.407" height="8.47"/>
				<rect x="194.84" y="236.508" style="fill:#FFFFFF;" width="83.407" height="8.47"/>
				<rect x="194.84" y="195.286" style="fill:#FFFFFF;" width="83.407" height="8.47"/>
			</g>
		</g>
		<rect x="226.498" y="377.897" style="fill:#407BFF;" width="53.142" height="37.583"/>
		<rect x="215.285" y="167.052" style="fill:#407BFF;" width="22.022" height="22.022"/>
		<rect x="241.543" y="167.052" style="fill:#407BFF;" width="22.022" height="22.022"/>
		<rect x="267.8" y="167.052" style="opacity:0.7;fill:#FFFFFF;" width="22.022" height="22.022"/>
		<rect x="215.285" y="209.121" style="opacity:0.7;fill:#FFFFFF;" width="22.022" height="22.022"/>
		<rect x="241.543" y="209.121" style="fill:#407BFF;" width="22.022" height="22.022"/>
		<rect x="267.8" y="209.121" style="opacity:0.7;fill:#FFFFFF;" width="22.022" height="22.022"/>
		<rect x="215.285" y="250.342" style="opacity:0.7;fill:#FFFFFF;" width="22.022" height="22.022"/>
		<rect x="241.543" y="250.342" style="opacity:0.7;fill:#FFFFFF;" width="22.022" height="22.022"/>
		<rect x="267.8" y="250.342" style="fill:#407BFF;" width="22.022" height="22.022"/>
		<rect x="215.285" y="291.564" style="opacity:0.7;fill:#FFFFFF;" width="22.022" height="22.022"/>
		<rect x="241.543" y="291.564" style="fill:#407BFF;" width="22.022" height="22.022"/>
		<rect x="267.8" y="291.564" style="opacity:0.7;fill:#FFFFFF;" width="22.022" height="22.022"/>
		<rect x="215.285" y="332.785" style="fill:#407BFF;" width="22.022" height="22.022"/>
		<rect x="241.543" y="332.785" style="fill:#407BFF;" width="22.022" height="22.022"/>
		<rect x="267.8" y="332.785" style="opacity:0.7;fill:#FFFFFF;" width="22.022" height="22.022"/>
		<g>
			<rect x="215.285" y="167.052" style="fill:#407BFF;" width="2.32" height="22.022"/>
			<rect x="241.543" y="167.052" style="fill:#407BFF;" width="2.32" height="22.022"/>
			<rect x="267.8" y="167.052" style="fill:#407BFF;" width="2.32" height="22.022"/>
			<rect x="215.285" y="209.121" style="fill:#407BFF;" width="2.32" height="22.022"/>
			<rect x="241.543" y="209.121" style="fill:#407BFF;" width="2.32" height="22.022"/>
			<rect x="267.8" y="209.121" style="fill:#407BFF;" width="2.32" height="22.022"/>
			<rect x="215.285" y="250.342" style="fill:#407BFF;" width="2.32" height="22.022"/>
			<rect x="241.543" y="250.342" style="fill:#407BFF;" width="2.32" height="22.022"/>
			<rect x="267.8" y="250.342" style="fill:#407BFF;" width="2.32" height="22.022"/>
			<rect x="215.285" y="291.564" style="fill:#407BFF;" width="2.32" height="22.022"/>
			<rect x="241.543" y="291.564" style="fill:#407BFF;" width="2.32" height="22.022"/>
			<rect x="267.8" y="291.564" style="fill:#407BFF;" width="2.32" height="22.022"/>
			<rect x="215.285" y="332.785" style="fill:#407BFF;" width="2.32" height="22.022"/>
			<rect x="241.543" y="332.785" style="fill:#407BFF;" width="2.32" height="22.022"/>
			<rect x="267.8" y="332.785" style="fill:#407BFF;" width="2.32" height="22.022"/>
		</g>
		<g style="opacity:0.2;">
			<rect x="215.285" y="167.052" width="2.32" height="22.022"/>
			<rect x="241.543" y="167.052" width="2.32" height="22.022"/>
			<rect x="267.8" y="167.052" width="2.32" height="22.022"/>
			<rect x="215.285" y="209.121" width="2.32" height="22.022"/>
			<rect x="241.543" y="209.121" width="2.32" height="22.022"/>
			<rect x="267.8" y="209.121" width="2.32" height="22.022"/>
			<rect x="215.285" y="250.342" width="2.32" height="22.022"/>
			<rect x="241.543" y="250.342" width="2.32" height="22.022"/>
			<rect x="267.8" y="250.342" width="2.32" height="22.022"/>
			<rect x="215.285" y="291.564" width="2.32" height="22.022"/>
			<rect x="241.543" y="291.564" width="2.32" height="22.022"/>
			<rect x="267.8" y="291.564" width="2.32" height="22.022"/>
			<rect x="215.285" y="332.785" width="2.32" height="22.022"/>
			<rect x="241.543" y="332.785" width="2.32" height="22.022"/>
			<rect x="267.8" y="332.785" width="2.32" height="22.022"/>
		</g>
		<rect x="253.069" y="380.438" style="opacity:0.4;fill:#FFFFFF;" width="24.03" height="35.042"/>
		<rect x="229.039" y="380.438" style="opacity:0.7;fill:#FFFFFF;" width="24.03" height="35.042"/>
		<rect x="229.039" y="380.438" style="fill:#407BFF;" width="2.541" height="35.042"/>
		<rect x="229.039" y="380.438" style="opacity:0.2;" width="2.541" height="35.042"/>
	</g>
</g>
<g id="Character">
	<g>
		<path style="fill:#CE7A63;" d="M100.95,209.145c0.308-1.66,0.985-3.681,1.809-5.648c0.827-1.986,1.769-4.005,2.801-6.001
			c1.005-2.011,2.115-3.997,3.214-5.994c1.1-1.976,2.308-3.994,3.423-5.862l-8.783-5.61c-1.403,2.133-2.589,4.193-3.803,6.34
			c-1.208,2.128-2.317,4.319-3.39,6.555c-1.045,2.249-2.048,4.545-2.909,6.975c-0.839,2.45-1.635,4.958-1.977,7.988
			c-0.075,0.87-0.134,1.791-0.07,2.815h9.537C100.799,210.443,100.815,209.822,100.95,209.145z"/>
		<g>
			<path style="fill:#CE7A63;" d="M173.558,187.182c-2.32,3.866-4.76,7.862-7.428,11.148c-0.661,0.82-1.354,1.576-2.029,2.227
				c-0.664,0.65-1.356,1.187-1.866,1.434c-0.043,0.022-0.081,0.038-0.12,0.054c0.027-0.039-0.359-0.228-0.774-0.639
				c-1.066-0.984-2.342-2.655-3.439-4.416c-1.117-1.781-2.197-3.696-3.198-5.679c-1.027-1.97-1.97-4.016-2.926-6.064
				c-0.939-2.034-1.845-4.187-2.68-6.169l-9.726,3.746c0.885,2.393,1.843,4.556,2.857,6.797c1.004,2.225,2.122,4.405,3.309,6.581
				c1.214,2.162,2.492,4.32,4.002,6.437c0.755,1.059,1.565,2.113,2.473,3.161c0.921,1.047,1.916,2.094,3.223,3.101
				c0.654,0.503,1.385,1,2.274,1.45c0.89,0.443,1.946,0.856,3.251,1.016c1.362,0.16,2.703-0.046,3.768-0.423
				c1.086-0.369,1.947-0.883,2.675-1.404c1.451-1.055,2.458-2.173,3.352-3.278c0.88-1.112,1.602-2.238,2.266-3.358
				c1.317-2.246,2.358-4.514,3.262-6.812c0.908-2.308,1.663-4.584,2.277-7.027L173.558,187.182z"/>
			<path style="fill:#263238;" d="M160.105,195.627l-10.865,8.109c0,0-0.418-0.458-1.107-1.253c-0.501-0.587-1.15-1.36-1.9-2.268
				c-4.221-5.143-10.394-14.532-10.444-19.13c-0.075-6.854,7.041-7.864,15.028-0.852c3.445,3.025,5.244,8.045,6.998,11.157
				c0.58,1.026,1.067,1.923,1.443,2.621C159.797,195.022,160.105,195.627,160.105,195.627z"/>
			<path style="opacity:0.5;fill:#FFFFFF;" d="M160.105,195.627l-10.865,8.109c0,0-0.418-0.458-1.107-1.253
				c-0.501-0.587-1.15-1.36-1.9-2.268c-4.221-5.143-10.394-14.532-10.444-19.13c-0.075-6.854,7.041-7.864,15.028-0.852
				c3.445,3.025,5.244,8.045,6.998,11.157c0.58,1.026,1.067,1.923,1.443,2.621C159.797,195.022,160.105,195.627,160.105,195.627z"/>
			<path style="opacity:0.2;" d="M135.715,181.876c2.456-1.623,4.249,2.578,9.1,6.127c2.164,1.583,6.904,11.902,6.514,14.173
				l-2.093,1.561C149.236,203.737,135.661,188.707,135.715,181.876z"/>
			<g>
				<path style="fill:#CE7A63;" d="M172.723,188.83l3.868-7.036l3.535,9.208c0,0-4.38,3.655-6.612,1.195L172.723,188.83z"/>
				<polygon style="fill:#CE7A63;" points="181.08,181.749 182.636,188.636 180.125,191.002 176.591,181.794 				"/>
			</g>
			<path style="fill:#CE7A63;" d="M173.352,188.288c0,0-0.067-1.936-0.841-3.683c-0.605-1.366-2.011-2.504-1.707-3.256
				c0.132-0.327,1.005-0.487,1.35-0.411c0.661,0.144,1.682,1.211,2.022,1.796c0.474,0.814,1.783,3.683,1.783,3.683L173.352,188.288z
				"/>
		</g>
		<path style="fill:#263238;" d="M135.165,143.486c0,0,2.959,1.4,1.609,3.641c0,0,2.487,1.62,0.641,4.364
			c0,0,0.176,4.117-2.251,1.727c-2.426-2.39-3.162-9.094-3.162-9.094L135.165,143.486z"/>
		<g>
			<path style="fill:#263238;" d="M114.66,188.167c-1.549,4.6-4.09,10.109-5.963,13.957c-0.492,1.02-0.946,1.929-1.317,2.662
				c-0.649,1.289-1.057,2.068-1.057,2.068l-13.93-7.716c0,0,0.176-0.584,0.492-1.567c0.241-0.742,0.557-1.716,0.946-2.838
				c2.319-6.612,7.058-18.41,11.704-19.087C112.481,174.635,117.48,179.829,114.66,188.167z"/>
			<path style="opacity:0.5;fill:#FFFFFF;" d="M114.66,188.167c-1.549,4.6-4.09,10.109-5.963,13.957
				c-0.492,1.02-0.946,1.929-1.317,2.662c-0.649,1.289-1.057,2.068-1.057,2.068l-13.93-7.716c0,0,0.176-0.584,0.492-1.567
				c0.241-0.742,0.557-1.716,0.946-2.838c2.319-6.612,7.058-18.41,11.704-19.087C112.481,174.635,117.48,179.829,114.66,188.167z"/>
		</g>
		<polygon style="fill:#CE7A63;" points="166.541,406.959 173.081,404.837 169.016,389.417 162.476,391.539 		"/>
		<path style="fill:#263238;" d="M173.178,403.968l-7.347,2.384c-0.267,0.087-0.409,0.338-0.34,0.604l1.53,5.929
			c0.159,0.615,0.91,1.002,1.522,0.791c2.544-0.874,3.717-1.421,6.948-2.47c1.988-0.645,10.506-3.181,13.251-4.072
			c2.685-0.871,1.786-3.58,0.543-3.448c-5.574,0.591-12.532,1.169-14.85,0.318C174.017,403.852,173.569,403.841,173.178,403.968z"/>
		<g>
			<polygon style="opacity:0.2;" points="162.476,391.543 169.018,389.42 171.11,397.37 164.568,399.493 			"/>
		</g>
		<path style="fill:#263238;" d="M146.536,235.428c0,0,9.288,55.968,12.04,75.491c3.013,21.38,14.851,83.907,14.851,83.907
			l-12.138,3.353c0,0-17.338-60.592-22.252-81.376c-5.333-22.557-17.073-81.376-17.073-81.376H146.536z"/>
		<path style="opacity:0.4;" d="M131.632,258.382c4.748,11.862,5.286,32.024,3.357,40.288c-2.912-13.568-6.251-29.798-8.82-42.421
			C127.087,253.012,128.747,251.167,131.632,258.382z"/>
		<polygon style="fill:#263238;" points="160.982,398.419 173.983,394.837 173.731,389.542 159.094,394.603 		"/>
		<path style="fill:#407BFF;" d="M175.866,404.355c-0.604,0.196-1.313,0.288-1.819,0.332c-0.063,0.005-0.124-0.027-0.154-0.082
			c-0.031-0.056-0.025-0.124,0.013-0.174c0.162-0.213,1.602-2.079,2.503-2.025c0.209,0.012,0.38,0.121,0.495,0.316
			c0.19,0.321,0.216,0.62,0.077,0.889C176.805,403.953,176.373,404.191,175.866,404.355z M174.395,404.33
			c1.245-0.147,2.095-0.462,2.302-0.865c0.086-0.167,0.063-0.356-0.069-0.579c-0.061-0.103-0.137-0.154-0.238-0.159
			C175.906,402.697,174.997,403.601,174.395,404.33z"/>
		<path style="fill:#407BFF;" d="M174.083,404.68c-0.024,0.008-0.05,0.01-0.075,0.006c-0.054-0.009-0.1-0.045-0.122-0.096
			c-0.032-0.078-0.79-1.911-0.336-2.761c0.122-0.229,0.317-0.371,0.577-0.422c0.313-0.061,0.563,0.039,0.702,0.282
			c0.382,0.664-0.15,2.346-0.675,2.945C174.135,404.655,174.11,404.671,174.083,404.68z M174.117,401.739
			c-0.127,0.041-0.22,0.12-0.284,0.24c-0.271,0.507,0.025,1.602,0.245,2.217c0.413-0.665,0.725-1.913,0.474-2.348
			c-0.047-0.083-0.132-0.173-0.363-0.127C174.164,401.725,174.139,401.732,174.117,401.739z"/>
		<polygon style="fill:#CE7A63;" points="100.74,409.968 107.616,409.968 109.902,394.045 103.026,394.045 		"/>
		<path style="fill:#263238;" d="M108.046,409.172h-7.724c-0.281,0-0.51,0.195-0.551,0.47l-0.909,6.111
			c-0.094,0.634,0.448,1.234,1.097,1.223c2.693-0.046,3.992-0.204,7.389-0.204c2.09,0,10.956,0.217,13.841,0.217
			c2.823,0,3.053-2.854,1.853-3.112c-5.383-1.159-12.04-2.757-13.848-4.281C108.867,409.319,108.457,409.172,108.046,409.172z"/>
		<g>
			<polygon style="opacity:0.2;" points="103.024,394.05 109.902,394.05 108.72,402.257 101.842,402.257 			"/>
		</g>
		<path style="fill:#263238;" d="M134.092,235.077c0,0-3.942,52.544-6.78,72.229c-3.107,21.556-15.47,92.97-15.47,92.97H99.25
			c0,0,6.471-69.673,7.58-91.016c1.203-23.164,3.533-74.183,3.533-74.183H134.092z"/>
		<polygon style="fill:#263238;" points="98.742,400.276 112.35,400.276 113.523,395.497 98.439,396.244 		"/>
		<path style="fill:#407BFF;" d="M110.378,410.369c-0.635,0-1.326-0.131-1.811-0.246c-0.06-0.014-0.104-0.063-0.11-0.126
			c-0.006-0.062,0.025-0.125,0.08-0.162c0.233-0.153,2.296-1.483,3.106-1.153c0.188,0.076,0.303,0.233,0.333,0.454
			c0.05,0.364-0.043,0.657-0.277,0.87C111.404,410.277,110.91,410.369,110.378,410.369z M109.028,409.891
			c1.208,0.245,2.117,0.207,2.466-0.112c0.145-0.132,0.198-0.319,0.164-0.573c-0.016-0.117-0.066-0.188-0.157-0.225
			C111.065,408.804,109.87,409.384,109.028,409.891z"/>
		<path style="fill:#407BFF;" d="M108.603,410.128c-0.025,0-0.05-0.006-0.072-0.018c-0.047-0.025-0.075-0.074-0.075-0.129
			c0.001-0.084,0.019-2.061,0.771-2.73c0.203-0.18,0.438-0.255,0.699-0.224c0.313,0.038,0.505,0.211,0.538,0.485
			c0.093,0.75-1.058,2.185-1.778,2.593C108.66,410.12,108.632,410.128,108.603,410.128z M109.787,407.341
			c-0.133,0-0.25,0.046-0.356,0.141c-0.449,0.398-0.604,1.531-0.643,2.184c0.642-0.505,1.42-1.595,1.359-2.087
			c-0.011-0.094-0.055-0.205-0.285-0.233C109.835,407.342,109.811,407.341,109.787,407.341z"/>
		<path style="fill:#263238;" d="M146.536,235.428h-36.772c-0.26-3.283,0.501-13.967-0.065-27.572
			c-0.38-9.135-1.363-19.587-3.654-29.993c-0.167-0.742-0.334-1.475-0.51-2.217c0,0,1.864-0.38,4.535-0.77
			c2.217-0.325,4.999-0.658,7.726-0.788c4.693-0.222,11.491-0.371,15.627,0c2.402,0.223,4.749,0.622,6.622,0.983
			c2.393,0.482,3.803,0.895,3.803,0.895S152.907,196.764,146.536,235.428z"/>
		<path style="opacity:0.5;fill:#FFFFFF;" d="M146.536,235.428h-36.772c-0.26-3.283,0.501-13.967-0.065-27.572
			c-0.38-9.135-1.363-19.587-3.654-29.993c-0.167-0.742-0.334-1.475-0.51-2.217c0,0,1.864-0.38,4.535-0.77
			c2.217-0.325,4.999-0.658,7.726-0.788c4.693-0.222,11.491-0.371,15.627,0c2.402,0.223,4.749,0.622,6.622,0.983
			c2.393,0.482,3.803,0.895,3.803,0.895S152.907,196.764,146.536,235.428z"/>
		<path style="fill:#263238;" d="M123.241,183.195l3.854-4.86l0.911-1.186l2.064,1.1l4.937,3.748
			c4.026-3.355,1.961-6.363,1.198-7.571c-0.905-0.13-1.835-0.249-2.783-0.337c-4.136-0.371-10.934-0.222-15.627,0
			c-1.137,0.054-2.282,0.145-3.393,0.255C117.219,181.222,123.241,183.195,123.241,183.195z"/>
		<path style="opacity:0.7;fill:#FFFFFF;" d="M123.241,183.195l3.854-4.86l0.911-1.186l2.064,1.1l4.937,3.748
			c4.026-3.355,1.961-6.363,1.198-7.571c-0.905-0.13-1.835-0.249-2.783-0.337c-4.136-0.371-10.934-0.222-15.627,0
			c-1.137,0.054-2.282,0.145-3.393,0.255C117.219,181.222,123.241,183.195,123.241,183.195z"/>
		<path style="fill:#CE7A63;" d="M118.129,156.56l4.183,3.469l5.694,4.73c-0.167,0.77-0.297,1.549-0.362,2.3
			c-0.306,3.088,0.492,5.898,5.036,6.974c0,0,5.39,3.57-2.61,4.216c-0.024,0.504-0.109,1.736-0.396,2.567
			c-0.856-1.268-2.14-2.188-2.578-2.481c-8.748-0.156-9.903-4.21-9.903-4.21C120.596,170.768,119.288,161.596,118.129,156.56z"/>
		<path style="opacity:0.2;" d="M128.006,164.758c-0.167,0.77-0.297,1.549-0.362,2.301c-2.124-0.427-4.961-2.69-5.258-4.86
			c-0.111-0.816-0.13-1.604-0.074-2.17L128.006,164.758z"/>
		<path style="fill:#CE7A63;" d="M116.404,149.317c1.454,6.686,1.964,10.661,5.913,13.712c5.94,4.589,13.813,0.512,14.39-6.403
			c0.519-6.224-1.946-16.112-8.979-18.006C120.799,136.755,114.95,142.631,116.404,149.317z"/>
		<path style="fill:#263238;" d="M125.21,151.723c0.085,0.548,0.445,0.958,0.805,0.915c0.36-0.043,0.583-0.522,0.499-1.071
			c-0.085-0.548-0.445-0.958-0.805-0.915C125.349,150.695,125.126,151.175,125.21,151.723z"/>
		<path style="fill:#263238;" d="M131.435,150.983c0.085,0.548,0.445,0.958,0.805,0.915c0.36-0.043,0.583-0.522,0.499-1.07
			c-0.085-0.548-0.445-0.958-0.805-0.915C131.573,149.955,131.35,150.435,131.435,150.983z"/>
		<path style="fill:#BA4D3C;" d="M130.369,151.491c0,0,1.74,3.015,3.354,4.378c-0.835,1.021-2.555,0.805-2.555,0.805
			L130.369,151.491z"/>
		<path style="fill:#263238;" d="M129.897,158.668c-2.185,0-3.406-1.362-3.462-1.426c-0.059-0.067-0.053-0.17,0.015-0.229
			c0.067-0.06,0.17-0.053,0.23,0.015c0.014,0.015,1.403,1.568,3.824,1.278c0.09-0.011,0.17,0.053,0.181,0.143
			c0.011,0.089-0.053,0.17-0.143,0.181C130.318,158.656,130.103,158.668,129.897,158.668z"/>
		<path style="fill:#263238;" d="M123.848,149.951c-0.053,0-0.107-0.013-0.158-0.041c-0.157-0.087-0.214-0.286-0.127-0.443
			c0.864-1.556,2.372-1.646,2.436-1.649c0.168-0.025,0.332,0.129,0.341,0.309c0.009,0.18-0.13,0.332-0.309,0.341
			c-0.063,0.004-1.22,0.092-1.898,1.315C124.073,149.89,123.962,149.951,123.848,149.951z"/>
		<path style="fill:#263238;" d="M134.653,148.533c-0.104,0-0.206-0.05-0.27-0.142c-0.834-1.224-2.046-1.246-2.058-1.246
			c-0.18-0.001-0.325-0.148-0.324-0.327c0.001-0.179,0.147-0.324,0.326-0.324h0.002c0.064,0.001,1.568,0.027,2.592,1.53
			c0.101,0.148,0.063,0.351-0.086,0.452C134.78,148.515,134.716,148.533,134.653,148.533z"/>
		<path style="fill:#407BFF;" d="M114.585,173.942c0.352-0.049,0.698,0.104,0.892,0.402c2.688,4.118,21.624,33.495,22.554,45.354
			c0.36,4.592-3.583,14.935-6.096,20.978c-1.132,2.723-3.973,4.323-6.886,3.865l-14.679-2.304c-1.361-0.214-2.274-1.51-2.005-2.861
			c0.372-1.86,0.767-4.799,0.767-8.884c0-7.698-0.436-28.369-0.436-28.369s5.979-11.598-1.16-25.993
			c-0.276-0.556,0.088-1.218,0.702-1.304L114.585,173.942z"/>
		<path style="opacity:0.1;" d="M138.032,219.698c-0.44-5.61-4.91-15.138-9.782-24.06c-2.282,9.396-4.215,19.443-3.663,24.798
			c0.444,4.312,4.742,13.268,7.788,19.174C134.882,233.48,138.372,224.031,138.032,219.698z"/>
		<path style="opacity:0.6;fill:#FFFFFF;" d="M134.099,207.295c-0.626-1.404-1.306-2.845-2.023-4.303
			c-3.205,0.098-6.358,0.118-9.306,0.093c-2.407-13.762-6.778-23.993-9.25-28.993l-4.579,0.638c2.015,3.93,6.69,14.113,9.294,28.281
			c-4.04-0.098-7.404-0.261-9.528-0.383c0.015,0.758,0.048,2.329,0.088,4.376c2.332,0.134,5.906,0.307,10.156,0.401
			c1.494,10.439,1.749,22.704-0.861,36.046l4.313,0.677c2.65-13.592,2.486-26.03,1.049-36.659c0.518,0.003,1.039,0.005,1.568,0.005
			C127.932,207.473,131.003,207.421,134.099,207.295z"/>
		<path style="fill:#407BFF;" d="M137.258,174.059c-0.488-0.098-0.94,0.279-0.921,0.777c0.077,2.085,0.048,7.305-1.636,13.612
			c-2.928,10.969-8.811,25.224-8.114,31.988c0.468,4.539,5.208,14.23,8.26,20.085c1.446,2.774,4.693,4.083,7.662,3.099l4.211-1.396
			c1.131-0.375,1.808-1.513,1.632-2.691c-0.354-2.362-0.623-7.043,0.455-15.213c1.724-13.073,0-29.962,0-29.962
			s-3.394-7.365-4.816-18.405c-0.042-0.327-0.286-0.595-0.609-0.66L137.258,174.059z"/>
		<path style="opacity:0.6;fill:#FFFFFF;" d="M149.498,205.822c-0.034-1.173-0.078-2.293-0.127-3.341c0-0.001,0-0.003-0.001-0.004
			c-0.016-0.351-0.034-0.694-0.051-1.029c-1.323,0.232-2.712,0.428-4.132,0.603c-0.774-13.466-1.971-22.342-2.727-26.943
			l-4.585-0.924c0.668,3.746,2.101,13.087,2.973,28.314c-3.496,0.295-7.109,0.458-10.637,0.536
			c-0.472,1.495-0.925,2.967-1.345,4.402c4.001-0.064,8.166-0.232,12.208-0.572c0.109,2.354,0.205,4.826,0.282,7.427
			c0.448,15.135,0.419,24.294,0.297,29.544c0.287-0.053,0.573-0.119,0.857-0.213l3.535-1.172c0.095-5.514,0.079-14.401-0.332-28.288
			c-0.08-2.72-0.181-5.294-0.296-7.745c1.394-0.169,2.765-0.355,4.083-0.576C149.498,205.834,149.498,205.828,149.498,205.822z"/>
		<g>
			<path style="fill:#407BFF;" d="M120.352,222.94c-1.813-1.294-8.411-0.055-11.278,0.565c0.036,2.743,0.059,5.213,0.059,6.988
				c0,1.257-0.04,2.394-0.103,3.436c2.806,0.571,9.334,1.727,11.321,0.593C123.35,232.811,123.093,224.895,120.352,222.94z"/>
			<path style="opacity:0.2;" d="M120.352,222.94c-1.813-1.294-8.411-0.055-11.278,0.565c0.036,2.743,0.059,5.213,0.059,6.988
				c0,1.257-0.04,2.394-0.103,3.436c2.806,0.571,9.334,1.727,11.321,0.593C123.35,232.811,123.093,224.895,120.352,222.94z"/>
		</g>
		<g>
			<path style="fill:#407BFF;" d="M132.704,231.303c-7.28,0-11.977-0.848-12.269-0.901l0.634-3.428
				c0.103,0.02,10.442,1.874,24.139-0.013l0.475,3.454C140.844,231.081,136.435,231.303,132.704,231.303z"/>
		</g>
		<g style="opacity:0.2;">
			<path d="M132.704,231.303c-7.28,0-11.977-0.848-12.269-0.901l0.634-3.428c0.103,0.02,10.442,1.874,24.139-0.013l0.475,3.454
				C140.844,231.081,136.435,231.303,132.704,231.303z"/>
		</g>
		<path style="fill:#407BFF;" d="M149.016,222.536c-1.816-0.253-3.556-0.268-4.29,0.404c-2.136,1.955-2.336,9.871,0,11.582
			c0.645,0.473,1.908,0.544,3.316,0.43c-0.019-2.591,0.162-6.065,0.764-10.632C148.884,223.733,148.952,223.137,149.016,222.536z"/>
		<path style="opacity:0.2;" d="M149.016,222.536c-1.816-0.253-3.556-0.268-4.29,0.404c-2.136,1.955-2.336,9.871,0,11.582
			c0.645,0.473,1.908,0.544,3.316,0.43c-0.019-2.591,0.162-6.065,0.764-10.632C148.884,223.733,148.952,223.137,149.016,222.536z"/>
		<path style="fill:#263238;" d="M116.541,146.609c0,0-6.101,1.839-3.777,4.296c0,0-2.244,1.851-0.073,3.62
			c0,0-1.235,3.184,2.324,3.045c0,0-0.17,3.759,2.55,2.458c0,0,0.719,1.402,2.207,0.273c1.488-1.128-0.345-4.955-0.345-4.955
			s2.596-1.123,1.743-3.514c0,0,2.274-0.996,1.109-4.017c0,0,1.891-1.642,1.241-2.804L116.541,146.609z"/>
		<path style="fill:#CE7A63;" d="M114.864,156.294c1.195,1.437,2.841,2.284,4.243,2.523c2.109,0.36,2.583-1.593,1.512-3.48
			c-0.964-1.698-3.224-3.932-5.106-3.434C113.657,152.394,113.497,154.652,114.864,156.294z"/>
		<g>
			<path style="fill:#407BFF;" d="M135.165,141.26l-20.536,5.868c0,0-3.313-10.056,6.552-12.42
				C130.568,132.459,135.165,141.26,135.165,141.26z"/>
			<path style="fill:#407BFF;" d="M122.445,140.103l-8.192,2.353c-0.497,0.143-0.959-0.313-0.823-0.812l0.544-1.998
				c0.072-0.265,0.3-0.458,0.574-0.486l7.691-0.774c0.324-0.033,0.604,0.222,0.604,0.547v0.641
				C122.843,139.82,122.681,140.035,122.445,140.103z"/>
			<path style="opacity:0.2;fill:#FFFFFF;" d="M122.445,140.103l-8.192,2.353c-0.497,0.143-0.959-0.313-0.823-0.812l0.544-1.998
				c0.072-0.265,0.3-0.458,0.574-0.486l7.691-0.774c0.324-0.033,0.604,0.222,0.604,0.547v0.641
				C122.843,139.82,122.681,140.035,122.445,140.103z"/>
			<path style="fill:#407BFF;" d="M131.791,137.929c-0.699,0.108-1.554,0.241-2.16,0.335c-0.469,0.073-0.945-0.036-1.333-0.309
				c-1.501-1.054-5.853-3.508-11.046-0.969c-0.194,0.095-0.359-0.171-0.192-0.307c2.362-1.93,8.143-5.327,14.999,0.233
				C132.446,137.227,132.285,137.852,131.791,137.929z"/>
			<path style="opacity:0.2;fill:#FFFFFF;" d="M131.791,137.929c-0.699,0.108-1.554,0.241-2.16,0.335
				c-0.469,0.073-0.945-0.036-1.333-0.309c-1.501-1.054-5.853-3.508-11.046-0.969c-0.194,0.095-0.359-0.171-0.192-0.307
				c2.362-1.93,8.143-5.327,14.999,0.233C132.446,137.227,132.285,137.852,131.791,137.929z"/>
			<path style="opacity:0.6;fill:#FFFFFF;" d="M134.188,139.77l-4.954,1.203c-0.223,0.054-0.456-0.046-0.57-0.245l-0.379-0.659
				c-0.176-0.305-0.002-0.693,0.343-0.765l4.394-0.918C133.486,138.879,133.874,139.352,134.188,139.77z"/>
			<path style="fill:#407BFF;" d="M134.854,140.734c0,0,7.792,1.944,0.311,3.656c-7.481,1.711-17.04,2.151-17.04,2.151l-3.397,0.948
				c-0.353,0.098-0.72-0.101-0.83-0.451l-0.035-0.111c-0.116-0.37,0.102-0.761,0.477-0.859L134.854,140.734z"/>
			<path style="opacity:0.2;fill:#FFFFFF;" d="M134.854,140.734c0,0,7.792,1.944,0.311,3.656c-7.481,1.711-17.04,2.151-17.04,2.151
				l-3.397,0.948c-0.353,0.098-0.72-0.101-0.83-0.451l-0.035-0.111c-0.116-0.37,0.102-0.761,0.477-0.859L134.854,140.734z"/>
		</g>
		<g>
			<polygon style="fill:#263238;" points="148.717,201.079 128.419,201.079 118.092,225.928 118.73,226.479 139.028,226.479 
				149.355,201.63 			"/>
			<polygon style="opacity:0.4;fill:#FFFFFF;" points="148.717,201.079 128.419,201.079 118.092,225.928 118.73,226.479 
				139.028,226.479 149.355,201.63 			"/>
			<polygon style="fill:#263238;" points="139.028,226.479 118.73,226.479 129.057,201.63 149.355,201.63 			"/>
			<g>
				<polygon style="fill:#407BFF;" points="143.464,200.717 135.732,200.717 134.548,203.567 134.813,203.796 142.545,203.796 
					143.73,200.946 				"/>
				<polygon style="opacity:0.5;fill:#FFFFFF;" points="143.464,200.717 135.732,200.717 134.548,203.567 134.813,203.796 
					142.545,203.796 143.73,200.946 				"/>
				<polygon style="fill:#407BFF;" points="142.545,203.796 143.729,200.946 135.997,200.946 134.813,203.796 				"/>
				<polygon style="opacity:0.2;fill:#FFFFFF;" points="142.545,203.796 143.729,200.946 135.997,200.946 134.813,203.796 				"/>
			</g>
		</g>
		<g>
			<g>
				<path style="fill:#CE7A63;" d="M116.567,214.094l6.564-2.803l-1.649,8.749c0,0-6.256,1.434-6.728-1.854L116.567,214.094z"/>
				<polygon style="fill:#CE7A63;" points="129.174,214.072 125.391,221.23 121.482,220.04 123.131,211.292 				"/>
			</g>
			<path style="fill:#CE7A63;" d="M100.958,209.109h-9.708c-0.054,1.213,0.003,2.554,0.44,4.158
				c0.082,0.276,0.172,0.542,0.284,0.836c0.139,0.335,0.288,0.668,0.465,0.971c0.345,0.622,0.759,1.158,1.185,1.609
				c0.86,0.912,1.753,1.497,2.581,1.928c1.666,0.855,3.141,1.221,4.547,1.501c1.404,0.27,2.743,0.373,4.051,0.442
				c5.223,0.195,10.019-0.434,14.892-1.521l-0.533-5.134c-4.537-0.265-9.242-0.621-13.426-1.439
				c-1.04-0.205-2.039-0.472-2.933-0.759c-0.885-0.283-2.002-0.883-2-0.891c-0.008-0.139-0.013-0.865,0.146-1.665
				C100.952,209.133,100.956,209.12,100.958,209.109z"/>
		</g>
	</g>
</g>
</svg>
