<?xml version="1.0" encoding="utf-8"?>
<!-- Generator: Adobe Illustrator 27.5.0, SVG Export Plug-In . SVG Version: 6.00 Build 0)  -->
<svg version="1.1" xmlns="http://www.w3.org/2000/svg" xmlns:xlink="http://www.w3.org/1999/xlink" x="0px" y="0px"
	 viewBox="0 0 500 500" style="enable-background:new 0 0 500 500;" xml:space="preserve">
<g id="Background_Complete">
	<g>
		<rect y="382.398" style="fill:#EBEBEB;" width="500" height="0.25"/>
		<rect x="416.779" y="398.494" style="fill:#EBEBEB;" width="33.122" height="0.25"/>
		<rect x="322.527" y="401.208" style="fill:#EBEBEB;" width="8.693" height="0.25"/>
		<rect x="396.586" y="389.208" style="fill:#EBEBEB;" width="19.192" height="0.25"/>
		<rect x="52.459" y="390.888" style="fill:#EBEBEB;" width="43.193" height="0.25"/>
		<rect x="104.556" y="390.888" style="fill:#EBEBEB;" width="6.333" height="0.25"/>
		<rect x="131.471" y="395.111" style="fill:#EBEBEB;" width="93.676" height="0.25"/>
		<path style="fill:#EBEBEB;" d="M237.014,337.8H43.915c-3.147,0-5.708-2.561-5.708-5.708V60.66c0-3.147,2.561-5.708,5.708-5.708
			h193.099c3.146,0,5.707,2.561,5.707,5.708v271.432C242.721,335.239,240.16,337.8,237.014,337.8z M43.915,55.203
			c-3.01,0-5.458,2.448-5.458,5.458v271.432c0,3.01,2.448,5.458,5.458,5.458h193.099c3.009,0,5.457-2.448,5.457-5.458V60.66
			c0-3.009-2.448-5.458-5.457-5.458H43.915z"/>
		<path style="fill:#EBEBEB;" d="M453.31,337.8H260.212c-3.147,0-5.707-2.561-5.707-5.708V60.66c0-3.147,2.561-5.708,5.707-5.708
			H453.31c3.148,0,5.708,2.561,5.708,5.708v271.432C459.019,335.239,456.458,337.8,453.31,337.8z M260.212,55.203
			c-3.009,0-5.457,2.448-5.457,5.458v271.432c0,3.01,2.448,5.458,5.457,5.458H453.31c3.01,0,5.458-2.448,5.458-5.458V60.66
			c0-3.009-2.448-5.458-5.458-5.458H260.212z"/>
	</g>
	<g>
		<g>
			<rect x="96.859" y="117.986" style="fill:#F0F0F0;" width="119.556" height="264.412"/>
			<rect x="102.526" y="117.986" style="fill:#F5F5F5;" width="113.889" height="264.412"/>
			
				<rect x="33.264" y="199.248" transform="matrix(-1.836970e-16 1 -1 -1.836970e-16 409.6628 90.7219)" style="fill:#F0F0F0;" width="252.412" height="101.89"/>
			<path style="fill:#FFFFFF;" d="M188.236,246.167h8.463c2.33,0,4.236-1.906,4.236-4.236l0,0c0-2.33-1.906-4.236-4.236-4.236
				h-8.463c-2.33,0-4.236,1.906-4.236,4.236l0,0C184,244.26,185.906,246.167,188.236,246.167z"/>
			
				<rect x="83.431" y="249.414" transform="matrix(-1.836970e-16 1 -1 -1.836970e-16 459.8296 40.5551)" style="fill:#F0F0F0;" width="252.412" height="1.556"/>
		</g>
		<g>
			<rect x="284.526" y="268.778" style="fill:#F0F0F0;" width="27.179" height="109.015"/>
			<rect x="289.745" y="377.792" style="fill:#F0F0F0;" width="134.034" height="4.606"/>
			
				<rect x="311.705" y="268.778" transform="matrix(-1 -1.224647e-16 1.224647e-16 -1 740.7021 646.5701)" style="fill:#F5F5F5;" width="117.292" height="109.015"/>
			
				<rect x="322.391" y="277.725" transform="matrix(-1 -1.224647e-16 1.224647e-16 -1 740.7021 579.2902)" style="fill:#F0F0F0;" width="95.921" height="23.84"/>
			
				<rect x="322.391" y="308.681" transform="matrix(-1 -1.224647e-16 1.224647e-16 -1 740.7021 677.5259)" style="fill:#F0F0F0;" width="95.921" height="60.163"/>
			<path style="fill:#F5F5F5;" d="M382.455,291.28h-24.208c-0.723,0-1.315-0.592-1.315-1.315v-0.639
				c0-0.723,0.592-1.315,1.315-1.315h24.208c0.723,0,1.315,0.592,1.315,1.315v0.639C383.77,290.688,383.178,291.28,382.455,291.28z"
				/>
			<path style="fill:#F5F5F5;" d="M382.455,339.185h-24.208c-0.723,0-1.315-0.592-1.315-1.315v-0.64
				c0-0.723,0.592-1.315,1.315-1.315h24.208c0.723,0,1.315,0.592,1.315,1.315v0.64C383.77,338.593,383.178,339.185,382.455,339.185z
				"/>
		</g>
		<g>
			<rect x="390.395" y="129.106" style="fill:#E6E6E6;" width="38.353" height="72.298"/>
			<rect x="392.288" y="129.106" style="fill:#F5F5F5;" width="45.045" height="72.298"/>
			
				<rect x="385.084" y="149.592" transform="matrix(-1.836970e-16 1 -1 -1.836970e-16 580.066 -249.5558)" style="fill:#FFFFFF;" width="59.453" height="31.327"/>
		</g>
		<g>
			<rect x="326.957" y="107.968" style="fill:#E6E6E6;" width="38.353" height="72.298"/>
			<rect x="328.851" y="107.968" style="fill:#F5F5F5;" width="45.045" height="72.298"/>
			
				<rect x="321.647" y="128.453" transform="matrix(-1.836970e-16 1 -1 -1.836970e-16 495.4898 -207.2567)" style="fill:#FFFFFF;" width="59.453" height="31.327"/>
		</g>
		<g>
			<rect x="268.884" y="154.686" style="fill:#E6E6E6;" width="38.354" height="72.298"/>
			<rect x="270.778" y="154.686" style="fill:#F5F5F5;" width="45.045" height="72.298"/>
			
				<rect x="263.574" y="175.171" transform="matrix(-1.836970e-16 1 -1 -1.836970e-16 484.135 -102.4654)" style="fill:#FFFFFF;" width="59.453" height="31.327"/>
		</g>
	</g>
</g>
<g id="Background_Simple" style="display:none;">
	<g style="display:inline;">
		<path style="fill:#407BFF;" d="M307.846,78.957c71.046,11.958,107.058,103.035,99.045,159.598
			c-10.953,77.313-115.046,96.163-186.282,82.19c-75.072-14.726-108.078-81.28-88.063-147.674
			C148.846,119.003,246.95,68.707,307.846,78.957z"/>
		<path style="opacity:0.9;fill:#FFFFFF;" d="M307.846,78.957c71.046,11.958,107.058,103.035,99.045,159.598
			c-10.953,77.313-115.046,96.163-186.282,82.19c-75.072-14.726-108.078-81.28-88.063-147.674
			C148.846,119.003,246.95,68.707,307.846,78.957z"/>
	</g>
</g>
<g id="Shadow_1_">
	<ellipse id="_x3C_Path_x3E__157_" style="fill:#F5F5F5;" cx="250" cy="416.238" rx="193.889" ry="11.323"/>
</g>
<g id="Board">
	<g>
		<g>
			<path style="fill:#263238;" d="M298.821,284.222H117.488c-2.689,0-4.889-2.2-4.889-4.889V150c0-2.689,2.2-4.889,4.889-4.889
				h181.333c2.689,0,4.889,2.2,4.889,4.889v129.333C303.71,282.022,301.51,284.222,298.821,284.222z"/>
			<path style="fill:#263238;" d="M209.761,413.46h-3.213c-0.644,0-1.171-0.527-1.171-1.171V139.977
				c0-0.644,0.527-1.171,1.171-1.171h3.213c0.644,0,1.171,0.527,1.171,1.171v272.312C210.932,412.933,210.405,413.46,209.761,413.46
				z"/>
			<path style="fill:#263238;" d="M218.44,413.46h-20.571c-0.179,0-0.326-0.147-0.326-0.326v-0.571c0-2.563,2.097-4.659,4.659-4.659
				h11.904c2.563,0,4.659,2.097,4.659,4.659v0.571C218.766,413.314,218.619,413.46,218.44,413.46z"/>
			<rect x="261.154" y="141.611" style="fill:#407BFF;" width="16" height="1"/>
			<rect x="246.71" y="141.611" style="fill:#407BFF;" width="4.889" height="1"/>
			<path style="fill:#407BFF;" d="M299.53,284.222H118.196c-2.689,0-4.889-2.2-4.889-4.889V150c0-2.689,2.2-4.889,4.889-4.889
				H299.53c2.689,0,4.889,2.2,4.889,4.889v129.333C304.418,282.022,302.219,284.222,299.53,284.222z"/>
			<path style="opacity:0.7;fill:#FFFFFF;" d="M118.307,275V154.333c0-2.332,1.89-4.222,4.222-4.222h172.667
				c2.332,0,4.222,1.89,4.222,4.222V275c0,2.332-1.89,4.222-4.222,4.222H122.529C120.198,279.222,118.307,277.332,118.307,275z"/>
		</g>
		<g>
			<path style="opacity:0.2;" d="M170.968,213.014c-10.988-1.081-22.712-1.549-35.08-1.484c0.112-15.902,1.535-33.087,2.778-50.013
				l34.387,2.208C171.748,183.456,170.43,203.251,170.968,213.014z"/>
			<path style="fill:#FFFFFF;" d="M171.661,212.29c-10.988-1.081-22.712-1.549-35.08-1.484c0.112-15.902,0.842-32.363,2.085-49.289
				l35.08,1.484C172.441,182.732,171.123,202.527,171.661,212.29z"/>
		</g>
		<g>
			<polygon style="opacity:0.2;" points="217.703,246.871 182.625,248.399 181.171,198.389 215.555,197.584 			"/>
			
				<rect x="182.227" y="197.601" transform="matrix(0.9991 -0.0435 0.0435 0.9991 -9.4848 8.9061)" style="fill:#FFFFFF;" width="35.111" height="49.333"/>
		</g>
		<g>
			<polygon style="opacity:0.2;" points="295.892,245.682 261.082,241.09 268.343,191.588 302.344,196.773 			"/>
			
				<rect x="264.966" y="193.672" transform="matrix(0.9914 0.1308 -0.1308 0.9914 30.9849 -35.077)" style="fill:#FFFFFF;" width="35.111" height="49.333"/>
		</g>
		<g>
			<path style="opacity:0.2;" d="M176.223,281.841c-6.366,2.007-22.748,2.307-35.016,1.696c-1.746-15.401-1.572-32.64-1.131-50.023
				l34.394-0.575C173.718,244.895,174.307,266.101,176.223,281.841z"/>
			<path style="fill:#FFFFFF;" d="M176.916,281.116c-6.366,2.007-22.748,2.308-35.016,1.697
				c-1.746-15.401-2.265-31.916-1.824-49.299l35.087-1.299C174.411,244.171,175,265.377,176.916,281.116z"/>
		</g>
		<g>
			<path style="opacity:0.2;" d="M262.471,207.987l-35.103,0.77c-1.175-16.422-0.843-33.587-0.389-50.046l34.41-0.046
				C261.027,176.225,261.257,192.867,262.471,207.987z"/>
			<path style="fill:#FFFFFF;" d="M263.164,207.263l-35.103,0.77c-1.175-16.422-1.536-32.863-1.082-49.322l35.103-0.77
				C261.72,175.501,261.95,192.143,263.164,207.263z"/>
		</g>
	</g>
</g>
<g id="Character_1_">
	<g>
		<polygon style="fill:#FF8B7B;" points="277.003,401.012 269.251,398.932 272.007,380.425 279.759,382.506 		"/>
		<polygon style="fill:#FF8B7B;" points="348.691,408.042 340.664,408.042 334.411,389.454 342.437,389.454 		"/>
		<path style="fill:#263238;" d="M339.593,407.113h9.786c0.328,0,0.612,0.228,0.684,0.548l1.585,7.135
			c0.165,0.74-0.417,1.44-1.175,1.427c-3.148-0.054-5.446-0.239-9.412-0.239c-2.44,0-9.797,0.254-13.166,0.254
			c-3.295,0-3.809-3.331-2.43-3.633c6.184-1.353,10.845-3.219,12.825-4.998C338.647,407.285,339.113,407.113,339.593,407.113z"/>
		<path style="fill:#263238;" d="M269.546,398.049l8.466,2.272c0.317,0.085,0.532,0.379,0.518,0.707l-0.318,7.302
			c-0.033,0.757-0.757,1.288-1.485,1.08c-3.04-0.872-7.405-2.235-11.243-3.265c-4.488-1.205-8.43-2-13.693-3.413
			c-3.183-0.854-3.202-4.309-1.792-4.243c6.421,0.301,11.411,1.488,17.519-0.337C268.18,397.953,268.877,397.869,269.546,398.049z"
			/>
		<path style="fill:#FF8B7B;" d="M311.052,168.686c-2.653,3.337-5.399,6.91-7.992,10.426c-2.596,3.544-5.1,7.137-7.397,10.773
			c-1.155,1.817-2.206,3.66-3.214,5.489l-2.759,5.428l-0.236,0.482c-0.03,0.056-0.054,0.098-0.065,0.084
			c-0.013-0.024-0.01-0.055-0.009-0.355c-0.007-0.16,0.004-0.389-0.102-0.921c-0.031-0.141-0.062-0.267-0.134-0.496
			c-0.033-0.101-0.07-0.201-0.111-0.299c-0.054-0.135-0.119-0.277-0.189-0.411c-0.114-0.225-0.375-0.646-0.639-0.936
			c-0.333-0.382-0.71-0.705-1.206-0.998c-0.492-0.284-0.986-0.462-1.483-0.559c-0.42-0.088-0.898-0.102-1.178-0.082
			c-0.689,0.051-1.01,0.17-1.312,0.274c-0.525,0.208-0.682,0.339-0.821,0.432c-0.246,0.188-0.239,0.223-0.244,0.247
			c0.008,0.017,0.056-0.003,0.114-0.038c0.249-0.149,0.614-0.481,0.978-0.805c0.372-0.331,0.755-0.694,1.138-1.069
			c1.548-1.496,3.145-3.136,4.816-4.66l5.055,3.282c-0.817,2.269-1.775,4.38-2.923,6.534c-0.612,1.093-1.143,2.112-2.178,3.401
			c-0.14,0.169-0.294,0.348-0.496,0.555c-0.216,0.212-0.426,0.432-0.91,0.775c-0.258,0.17-0.538,0.373-1.197,0.629
			c-0.368,0.127-0.758,0.267-1.519,0.319c-0.315,0.024-0.829,0.004-1.284-0.087c-0.531-0.108-1.061-0.294-1.582-0.599
			c-0.528-0.309-0.928-0.659-1.288-1.064c-0.283-0.318-0.569-0.767-0.696-1.025c-0.077-0.149-0.15-0.307-0.212-0.459l-0.127-0.35
			c-0.085-0.262-0.122-0.423-0.16-0.599c-0.132-0.671-0.125-1.043-0.127-1.345c0.012-0.584,0.059-0.896,0.098-1.198
			c0.042-0.292,0.084-0.526,0.126-0.745c0.084-0.436,0.167-0.798,0.251-1.147c0.328-1.372,0.682-2.522,1.072-3.676
			c0.475-1.143,0.924-2.326,1.433-3.438c1.002-2.237,2.102-4.393,3.264-6.476c2.307-4.184,4.853-8.141,7.533-11.977
			c1.341-1.917,2.72-3.8,4.144-5.649c1.432-1.866,2.856-3.64,4.453-5.499L311.052,168.686z"/>
		<g>
			<path style="fill:#407BFF;" d="M315.408,162.796c1.721,7.479-14.685,26.607-14.685,26.607l-14.745-10.784
				c0,0,5.118-9.954,11.703-17.384C304.442,153.606,313.519,154.588,315.408,162.796z"/>
			<path style="opacity:0.2;" d="M315.408,162.796c1.721,7.479-14.685,26.607-14.685,26.607l-14.745-10.784
				c0,0,5.118-9.954,11.703-17.384C304.442,153.606,313.519,154.588,315.408,162.796z"/>
		</g>
		<polygon style="opacity:0.2;" points="272.007,380.431 270.585,389.969 278.341,392.051 279.763,382.512 		"/>
		<polygon style="opacity:0.2;" points="342.441,389.459 334.411,389.459 337.638,399.04 345.668,399.04 		"/>
		<g>
			<path style="fill:#407BFF;" d="M351.319,161.68c-10.45,29.92-10.64,62.33-11.81,68.82c-6.24-0.83-29.74-4-42.55-5.73
				c-2.88-45.94,9.74-68.7,9.74-68.7s2.78-0.37,6.54-0.53c1.18-0.05,2.45-0.08,3.77-0.07c0.73,0,1.47,0.021,2.22,0.05
				c4.84,0.21,12.69,1.45,18.09,2.44c1.13,0.21,2.28,0.45,3.39,0.7c1.03,0.24,2.04,0.49,2.99,0.74
				C348.009,160.53,351.319,161.68,351.319,161.68z"/>
			<path style="opacity:0.2;" d="M351.319,161.68c-10.45,29.92-10.64,62.33-11.81,68.82c-6.24-0.83-29.74-4-42.55-5.73
				c-2.88-45.94,9.74-68.7,9.74-68.7s2.78-0.37,6.54-0.53c1.18-0.05,2.45-0.08,3.77-0.07c0.73,0,1.47,0.021,2.22,0.05
				c4.84,0.21,12.69,1.45,18.09,2.44c1.13,0.21,2.28,0.45,3.39,0.7c1.03,0.24,2.04,0.49,2.99,0.74
				C348.009,160.53,351.319,161.68,351.319,161.68z"/>
		</g>
		<path style="opacity:0.2;" d="M341.536,175.46c-1.69,4.51-0.37,17,1.48,21.26c0.66-4.46,1.47-9.14,2.49-13.939L341.536,175.46z"/>
		<path style="fill:#FF8B7B;" d="M289.118,190.145l6.358-6.052l4.148,9.376c0,0-3.808,4.134-9.025,1.496L289.118,190.145z"/>
		<polygon style="fill:#FF8B7B;" points="300.153,181.016 303.326,189.318 299.624,193.469 295.476,184.092 		"/>
		<path style="fill:#FF8B7B;" d="M338.269,137.35c-1.925,5.666-4.501,16.175-0.953,20.607c-3.587,2.717-8.211,5.793-15.154,5.104
			c-6.943-0.689-5.095-5.279-2.932-7.542c6.698-0.675,7.18-5.512,6.659-10.187L338.269,137.35z"/>
		<path style="fill:#407BFF;" d="M318.045,154.042c0-1.583,6.5-2.917,6.75-1.417s-1.992,2-1.292,4.042
			c0.7,2.042,7.257,2.205,9.872-0.628c1.741-1.886,2.295-3.788,4.503-2.538s4.875,3,3.417,5.75c-1.458,2.75-9.708,9.25-17.208,7.583
			c-7.5-1.667-9.583-5.699-8.125-7.454C317.42,157.625,318.045,155.586,318.045,154.042z"/>
		<path style="opacity:0.2;" d="M333.221,140.608l-7.327,4.721c0.127,1.107,0.192,2.22,0.125,3.286
			c2.528-0.024,5.91-1.692,7.255-4.282C334.111,142.722,333.833,140.889,333.221,140.608z"/>
		<path style="fill:#FF8B7B;" d="M339.48,127.355c-0.713,7.934-0.727,12.614-4.856,16.58c-6.212,5.966-15.92,2.048-17.592-5.939
			c-1.505-7.189-0.086-18.957,7.783-21.9C332.568,113.197,340.193,119.421,339.48,127.355z"/>
		<path style="fill:#263238;" d="M340.094,120.958c-5.844-0.435-6.333,9.702-1.5,14.066
			C344.428,132.769,352.594,121.889,340.094,120.958z"/>
		<path style="fill:#263238;" d="M334.31,122.576c-3.421-5.391-10.014,3.169-13.251-2.733c-1.947-3.549-5.279,0.3-7.312-1.835
			c-2.034-2.136,1.111-7.849,3.232-8.356c-1.193,1.292-1.419,5.898,2.154,3.619c3.574-2.279,6.131-4.642,10.5-0.816
			c4.331,3.793,8.936-3.864,12.948,1.982C346.095,119.558,338.36,128.959,334.31,122.576z"/>
		<path style="fill:#263238;" d="M340.921,121.742c-0.876,0-1.813-0.146-2.766-0.447c-0.198-0.062-0.307-0.273-0.245-0.47
			c0.062-0.197,0.271-0.307,0.47-0.245c2.561,0.808,5.047,0.381,6.188-1.063c0.886-1.121,0.826-2.657-0.171-4.324
			c-0.106-0.178-0.048-0.408,0.129-0.514c0.178-0.107,0.408-0.048,0.514,0.129c1.151,1.925,1.193,3.811,0.116,5.174
			C344.249,121.132,342.711,121.742,340.921,121.742z"/>
		<path style="fill:#FF8B7B;" d="M342.822,136.217c-1.179,1.795-3.078,2.879-4.811,3.209c-2.608,0.497-3.69-1.89-2.778-4.235
			c0.82-2.111,3.166-4.913,5.694-4.349C343.417,131.397,344.17,134.165,342.822,136.217z"/>
		<path style="fill:#263238;" d="M267.716,387.118l13.128,3.517c0,0,12.49-46.254,16.434-70.953
			c1.201-7.514,3.878-17.913,7.117-29.018c4.087-13.991,9.055-29.084,13.088-40.894c4.253-12.438,7.448-21.229,7.448-21.229
			l-27.971-3.768c0,0-21.306,65.329-23.708,89.709C270.75,339.832,267.716,387.118,267.716,387.118z"/>
		<path style="opacity:0.2;" d="M304.395,290.664c4.087-13.991,9.055-29.084,13.088-40.894l-2.512-6.467
			C307.469,251.137,303.943,276.651,304.395,290.664z"/>
		<path style="fill:#263238;" d="M312.05,226.807c0,0-1.383,68.773,0.503,92.216c2.066,25.672,21.309,78.162,21.309,78.162h14.702
			c0,0-9.809-48.043-12.818-72.974c-3.427-28.399,3.759-93.704,3.759-93.704L312.05,226.807z"/>
		<polygon style="fill:#407BFF;" points="332.102,397.503 349.414,397.503 349.414,392.331 330.063,391.995 		"/>
		<polygon style="fill:#407BFF;" points="265.986,386.981 281.629,391.18 282.985,386.126 266.449,381.417 		"/>
		<path style="fill:#263238;" d="M327.361,129.236c-0.018,0.647-0.376,1.162-0.799,1.15c-0.423-0.012-0.751-0.546-0.733-1.193
			c0.018-0.647,0.376-1.162,0.799-1.15C327.052,128.054,327.38,128.589,327.361,129.236z"/>
		<path style="fill:#263238;" d="M320.046,129.029c-0.018,0.647-0.376,1.162-0.799,1.15c-0.423-0.012-0.751-0.546-0.733-1.193
			c0.018-0.647,0.376-1.162,0.799-1.15C319.737,127.847,320.065,128.382,320.046,129.029z"/>
		<path style="fill:#FF5652;" d="M322.363,129.417c0,0-1.577,3.692-3.248,5.448c1.115,1.101,3.075,0.668,3.075,0.668
			L322.363,129.417z"/>
		<path style="fill:#263238;" d="M324.869,137.34c2.471-0.262,3.661-1.939,3.716-2.018c0.06-0.086,0.038-0.204-0.048-0.264
			s-0.204-0.038-0.264,0.048c-0.014,0.02-1.405,1.966-4.237,1.886c-0.105-0.003-0.192,0.08-0.195,0.185
			c-0.003,0.105,0.08,0.192,0.185,0.195C324.321,137.38,324.603,137.369,324.869,137.34z"/>
		<path style="fill:#263238;" d="M329.684,126.937c0.063-0.007,0.125-0.029,0.18-0.068c0.171-0.122,0.211-0.359,0.089-0.53
			c-1.221-1.713-2.976-1.659-3.05-1.656c-0.21,0.009-0.373,0.186-0.364,0.396c0.009,0.209,0.185,0.372,0.394,0.364l0,0
			c0.058-0.002,1.426-0.029,2.401,1.338C329.416,126.895,329.552,126.951,329.684,126.937z"/>
		<path style="fill:#263238;" d="M316.966,126.424c0.122-0.013,0.236-0.085,0.297-0.202c0.776-1.489,2.135-1.651,2.192-1.657
			c0.208-0.022,0.36-0.209,0.339-0.417c-0.021-0.208-0.206-0.36-0.414-0.34c-0.075,0.009-1.819,0.198-2.791,2.063
			c-0.097,0.186-0.025,0.416,0.161,0.513C316.819,126.419,316.894,126.431,316.966,126.424z"/>
		<g>
			<path style="fill:#407BFF;" d="M336.938,408.515c0.742,0,1.543-0.154,2.101-0.289c0.074-0.018,0.131-0.079,0.143-0.154
				c0.012-0.076-0.022-0.151-0.087-0.192c-0.292-0.183-2.882-1.773-3.769-1.317c-0.138,0.071-0.306,0.221-0.326,0.538
				c-0.027,0.425,0.106,0.763,0.393,1.005C335.757,408.411,336.328,408.515,336.938,408.515z M338.488,407.96
				c-1.363,0.273-2.411,0.224-2.85-0.145c-0.193-0.162-0.277-0.387-0.258-0.69c0.009-0.148,0.069-0.197,0.12-0.223
				C335.961,406.665,337.435,407.351,338.488,407.96z"/>
			<path style="fill:#407BFF;" d="M338.994,408.232c0.036,0,0.072-0.01,0.104-0.031c0.058-0.038,0.091-0.105,0.086-0.174
				c-0.008-0.098-0.2-2.414-1.132-3.176c-0.243-0.198-0.516-0.281-0.81-0.245h0c-0.454,0.056-0.574,0.336-0.605,0.498
				c-0.17,0.895,1.436,2.653,2.267,3.104C338.932,408.225,338.963,408.232,338.994,408.232z M337.374,404.979
				c0.156,0,0.3,0.055,0.437,0.167c0.598,0.488,0.854,1.838,0.948,2.515c-0.826-0.627-1.849-1.956-1.748-2.484
				c0.009-0.048,0.031-0.161,0.278-0.192l0,0C337.317,404.98,337.346,404.979,337.374,404.979z"/>
			<path style="fill:#407BFF;" d="M268.496,398.915c0.07-0.005,0.133-0.049,0.161-0.115c0.032-0.074,0.013-0.16-0.047-0.215
				c-0.303-0.276-2.996-2.693-4.078-2.421c-0.209,0.053-0.359,0.193-0.434,0.407l0,0c-0.126,0.358-0.091,0.69,0.104,0.985
				c0.648,0.981,2.952,1.272,4.268,1.358C268.478,398.916,268.487,398.916,268.496,398.915z M264.699,396.521
				c0.639-0.046,2.156,1.052,3.228,1.968c-1.788-0.175-3.044-0.592-3.408-1.142c-0.128-0.194-0.148-0.406-0.063-0.65
				c0.033-0.094,0.083-0.143,0.168-0.165C264.648,396.527,264.673,396.523,264.699,396.521z"/>
			<path style="fill:#407BFF;" d="M268.496,398.915c0.018-0.001,0.036-0.005,0.053-0.012c0.063-0.024,0.109-0.079,0.121-0.146
				c0.015-0.091,0.367-2.235-0.402-3.309c-0.234-0.328-0.549-0.526-0.934-0.588l0,0c-0.519-0.084-0.733,0.132-0.822,0.329
				c-0.377,0.839,1.027,3.013,1.85,3.684C268.4,398.904,268.448,398.918,268.496,398.915z M267.075,395.223
				c0.052-0.004,0.117-0.001,0.198,0.012l0,0c0.285,0.046,0.51,0.188,0.685,0.434c0.505,0.706,0.446,2.029,0.382,2.665
				c-0.801-0.83-1.707-2.486-1.481-2.989C266.873,395.314,266.909,395.234,267.075,395.223z M267.303,395.047l-0.005,0
				L267.303,395.047z"/>
		</g>
		<g>
			<path style="fill:#FF8B7B;" d="M353.411,167.877c1.156,5.213,2.138,10.391,3.013,15.631c0.863,5.234,1.622,10.496,2.223,15.814
				l0.212,2.001l0.123,1.234c0.063,0.747,0.054,1.742-0.259,2.893c-0.292,1.141-1.049,2.499-2.074,3.4
				c-1.013,0.911-2.055,1.358-2.902,1.609c-1.723,0.477-2.829,0.376-3.852,0.311c-1.982-0.203-3.46-0.648-4.911-1.122
				c-1.43-0.492-2.754-1.042-4.046-1.614c-2.569-1.165-4.985-2.449-7.33-3.829c-2.353-1.383-4.602-2.819-6.839-4.442l2.848-5.311
				c4.858,1.678,9.791,3.481,14.535,4.778c1.178,0.325,2.35,0.613,3.457,0.813c1.085,0.21,2.186,0.354,2.833,0.3
				c0.285-0.008,0.518-0.13,0.053-0.055c-0.223,0.052-0.662,0.203-1.189,0.667c-0.538,0.456-0.966,1.214-1.098,1.719
				c-0.153,0.515-0.127,0.842-0.144,0.937c0.017,0.165-0.026-0.105-0.054-0.244l-0.089-0.476l-0.357-1.902
				c-0.983-5.08-2.006-10.184-3.049-15.293c-1.026-5.104-2.053-10.251-3.015-15.339L353.411,167.877z"/>
			<g>
				<path style="fill:#407BFF;" d="M354.023,163.65c5.24,5.607,5.712,22.839,5.712,22.839l-15.178,7.146
					c0,0-4.916-10.941-5.076-20.859C339.301,161.536,348.747,158.004,354.023,163.65z"/>
				<path style="opacity:0.2;" d="M354.023,163.65c5.24,5.607,5.712,22.839,5.712,22.839l-15.178,7.146
					c0,0-4.916-10.941-5.076-20.859C339.301,161.536,348.747,158.004,354.023,163.65z"/>
			</g>
			<g>
				<path style="fill:#263238;" d="M299.624,184.592c-0.084,0-0.17-0.021-0.249-0.067c-0.239-0.138-0.322-0.444-0.184-0.683
					l7.955-13.811c0.138-0.239,0.443-0.322,0.683-0.184c0.239,0.138,0.322,0.444,0.184,0.683l-7.955,13.811
					C299.965,184.503,299.796,184.592,299.624,184.592z"/>
				<path style="fill:#FFFFFF;" d="M324.444,223.005l-30.229-4.391c-1.269-0.184-2.343-1.311-2.399-2.516l-1.953-41.725
					c-0.056-1.205,0.926-2.033,2.195-1.849l30.229,4.391c1.269,0.184,2.343,1.311,2.399,2.516l1.953,41.725
					C326.695,222.361,325.712,223.189,324.444,223.005z"/>
				<path style="fill:#263238;" d="M323.761,223.424l-30.229-4.391c-1.269-0.184-2.343-1.311-2.399-2.516l-1.953-41.725
					c-0.057-1.205,0.926-2.033,2.195-1.849l30.229,4.391c1.269,0.184,2.343,1.311,2.399,2.516l1.953,41.725
					C326.012,222.78,325.029,223.608,323.761,223.424z"/>
			</g>
			<path style="fill:#FF8B7B;" d="M330.227,194.602l-7.105-3.989l-0.832,10.219c0,0,6.803,2.053,8.293-1.43L330.227,194.602z"/>
			<polygon style="fill:#FF8B7B;" points="315.205,192.427 316.196,200.069 322.289,200.833 323.122,190.614 			"/>
		</g>
	</g>
</g>
</svg>
